<?xml version="1.0" encoding="UTF-8"?>
<svg xmlns="http://www.w3.org/2000/svg" viewBox="-15 0 130 100">
<rect x="-15" y="0" width="130" height="100" fill="#fafafa"/>
<path d="M 8.80,19.58 Q 18.81,17.71 28.85,16.03 Q 39.95,18.07 50.91,20.80 Q 60.24,17.41 69.54,13.94 Q 80.14,17.77 90.91,21.07 Q 90.31,48.03 89.01,74.97 Q 79.05,78.01 68.97,80.63 Q 60.00,76.81 50.64,74.11 Q 40.24,76.94 29.94,80.12 Q 19.67,78.08 9.44,75.89 Q 9.14,47.74 8.80,19.58 Z" fill="#4a5560"/>
<rect x="28.09" y="18.34" width="1.92" height="57.06" fill="#f4ead5"/>
<rect x="48.35" y="23.33" width="1.79" height="47.09" fill="#f4ead5"/>
<rect x="68.35" y="19.97" width="2.17" height="56.69" fill="#f4ead5"/>
<rect x="0" y="45.37" width="100.41" height="5.86" fill="#b88a3c"/>
<polygon points="99.12,43.05 110.17,48.93 100.68,56.74" fill="#b88a3c"/>
<polygon points="-0.74,41.03 -10.17,48.82 -0.08,56.55" fill="#b88a3c"/>
</svg>