<?xml version="1.0" encoding="UTF-8"?>
<svg id="Layer_1" xmlns="http://www.w3.org/2000/svg" viewBox="0 0 128 128">
  <defs>
    <style>
      /* Edge strokes: OHM burgundy */
      .edge { fill: none; stroke: #6b2737; stroke-width: 0; stroke-linejoin: bevel; }
      .edge-r { fill: none; stroke: #6b2737; stroke-width: 0; stroke-linejoin: round; }
      .edge-m { fill: none; stroke: #6b2737; stroke-width: 0; stroke-miterlimit: 10; }
    </style>
    <clipPath id="base-ellipse-clip">
      <ellipse cx="52.32" cy="89.39" rx="22.1" ry="15.3"
               transform="rotate(-15.61,52.32,89.39)"/>
    </clipPath>
  </defs>

  <!-- ═══ FILLS ═══ -->
  <!-- Inside faces: warm gold -->
  <polygon points="14 95.8 51.4 61.8 92.2 82.2 54.8 116.2" fill="#c8943a"/>
  <polygon points="58.2 4 102.4 24.4 92.2 82.2 51.4 61.8"  fill="#c8943a"/>
  <!-- Edge/thickness faces: darker — burgundy tinted -->
  <polygon points="14 95.8 14 102.6 54.8 123 54.8 116.2"   fill="#4a1820"/>
  <polygon points="92.2 82.2 92.2 89 54.8 123 54.8 116.2"  fill="#5c2030"/>
  <polygon points="58.2 4 65 4 105.8 21 102.4 24.4"        fill="#4a1820"/>
  <polygon points="92.4 82.1 96 81.5 106 20.9 102.6 24.3"  fill="#5c2030"/>

  <!-- ═══ EARTH in base ellipse ═══ -->
  <!-- Ocean -->
  <ellipse cx="52.32" cy="89.39" rx="22.1" ry="15.3"
           transform="rotate(-15.61,52.32,89.39)" fill="#3878a0"/>

  <!-- Continents clipped to ellipse — real lon/lat outline (Natural Earth 110m) -->
  <g clip-path="url(#base-ellipse-clip)" fill="#5a8a30">
    <!-- north_america -->
    <path d="M 36.47,83.76 L 38.68,83.14 L 42.09,81.66 L 44.45,81.00 L 44.77,82.14 L 46.16,83.17 L 46.80,85.46 L 45.71,86.12 L 45.57,86.51 L 45.43,87.25 L 45.24,88.37 L 44.70,88.87 L 44.12,89.56 L 43.72,90.56 L 42.41,89.51 L 42.32,89.18 L 41.70,88.48 L 41.04,86.72 L 40.29,85.87 L 39.63,85.35 L 38.28,85.37 L 37.56,85.22 L 36.65,84.41 Z"/>
    <!-- south_america -->
    <path d="M 46.18,92.34 L 47.57,91.25 L 48.09,92.51 L 48.97,92.62 L 50.48,93.44 L 50.70,94.25 L 50.74,95.30 L 50.70,96.37 L 50.50,97.49 L 50.46,98.56 L 50.17,99.35 L 49.80,100.15 L 50.02,101.86 L 50.21,102.51 L 49.62,101.62 L 48.94,100.40 L 48.07,98.52 L 47.52,96.56 L 47.22,94.87 L 46.70,93.61 L 46.58,92.58 L 46.64,91.86 Z"/>
    <!-- europe -->
    <path d="M 50.57,86.17 L 51.36,85.95 L 52.06,85.40 L 52.69,85.23 L 53.38,84.68 L 53.92,84.18 L 53.97,85.57 L 53.25,85.42 L 52.75,84.86 L 52.10,84.33 L 51.53,84.14 L 50.99,84.64 L 50.59,84.40 L 49.84,83.55 L 50.06,83.14 L 50.44,82.68 L 51.14,82.13 L 51.68,81.63 L 52.38,81.08 L 52.10,80.10 L 51.22,79.99 L 50.59,80.16 L 49.90,80.71 L 49.29,81.59 L 48.25,81.52 L 48.53,82.51 L 49.18,83.03 L 49.84,83.55 L 50.18,84.16 L 50.21,84.86 Z"/>
    <!-- africa -->
    <path d="M 50.86,89.62 L 50.80,88.22 L 51.23,86.69 L 51.99,85.78 L 52.46,85.64 L 53.25,85.42 L 54.16,86.23 L 54.75,87.12 L 55.93,88.91 L 56.29,90.22 L 56.34,91.62 L 56.39,93.02 L 56.51,94.04 L 56.61,96.84 L 55.98,97.02 L 55.23,96.17 L 54.05,94.38 L 53.01,91.85 L 52.51,91.28 L 51.20,90.23 Z"/>
    <!-- asia -->
    <path d="M 53.29,84.35 L 54.65,84.33 L 56.09,84.63 L 57.43,86.37 L 58.95,88.77 L 59.34,86.55 L 60.71,88.99 L 61.49,88.77 L 61.55,85.93 L 61.48,83.83 L 60.99,81.50 L 60.98,79.03 L 59.36,78.07 L 57.50,77.53 L 55.07,78.56 L 53.99,79.57 L 53.05,79.83 L 53.01,80.90 L 52.74,82.39 L 52.70,83.46 Z"/>
    <!-- australia -->
    <path d="M 63.00,92.94 L 63.74,91.32 L 64.53,91.10 L 65.68,92.19 L 66.45,93.74 L 66.41,94.81 L 65.69,94.66 L 64.72,94.22 L 63.59,93.83 L 63.18,93.59 Z"/>
    <!-- greenland -->
    <path d="M 45.79,79.39 L 48.11,79.80 L 47.85,81.28 L 46.43,81.68 L 45.21,80.96 L 45.34,80.22 Z"/>
  </g>

  <!-- Earth outline -->
  <ellipse cx="52.32" cy="89.39" rx="22.1" ry="15.3"
           transform="rotate(-15.61,52.32,89.39)"
           fill="none" stroke="#6b2737" stroke-width="0"/>

  <!-- ═══ CLOCK in lid ellipse ═══ -->
  <!-- Clock face -->
  <ellipse cx="75.2" cy="44.8" rx="17" ry="20.4"
           transform="rotate(-20.77,75.2,44.8)"
           fill="white" fill-opacity="0.45"/>

  <!-- Hour hand: ~10 o'clock, short, thick -->
  <line x1="75.2" y1="44.8" x2="67.90" y2="42.99"
        stroke="#2a1a08" stroke-width="3.6" stroke-linecap="round"/>

  <!-- Minute hand: ~2 o'clock, long, same thickness -->
  <line x1="75.2" y1="44.8" x2="83.50" y2="33.66"
        stroke="#2a1a08" stroke-width="3.6" stroke-linecap="round"/>

  <!-- Center pivot -->
  <circle cx="75.2" cy="44.8" r="2.2" fill="#2a1a08"/>

  <!-- Clock ellipse outline -->
  <ellipse fill="none" stroke="#2a1a08" stroke-width="1.2" stroke-miterlimit="10"
           cx="75.2" cy="44.8" rx="17" ry="20.4"
           transform="translate(-11 29.58) rotate(-20.77)"/>

  <!-- ═══ ORIGINAL BOX STROKES — OHM burgundy ═══ -->
  <polygon class="edge"   points="58.2 4 102.4 24.4 92.2 82.2 51.4 61.8"/>
  <polygon class="edge"   points="14 95.8 51.4 61.8 92.2 82.2 54.8 116.2"/>
  <ellipse  class="edge-m" cx="52.32" cy="89.39" rx="22.1" ry="15.3"
            transform="translate(-22.12 17.37) rotate(-15.61)"/>
  <polygon class="edge"   points="14 95.8 14 102.6 54.8 123 54.8 116.2"/>
  <polygon class="edge"   points="92.2 82.2 92.2 89 54.8 123 54.8 116.2"/>
  <polygon class="edge"   points="58.2 4 65 4 105.8 21 102.4 24.4"/>
  <polygon class="edge-r" points="92.4 82.1 96 81.5 106 20.9 102.6 24.3"/>


  <!-- Hinge crease: lid meets base -->
  <line x1="51.4" y1="61.8" x2="92.2" y2="82.2"
        stroke="#6b2737" stroke-width="1.2" stroke-linecap="round"/>
</svg>
