<?xml version="1.0" standalone="no"?>
<!DOCTYPE svg PUBLIC "-//W3C//DTD SVG 20010904//EN"
 "http://www.w3.org/TR/2001/REC-SVG-20010904/DTD/svg10.dtd">
<svg version="1.0" xmlns="http://www.w3.org/2000/svg"
 width="257.000000pt" height="253.000000pt" viewBox="0 0 257.000000 253.000000"
 preserveAspectRatio="xMidYMid meet">
<metadata>
Created by potrace 1.16, written by Peter Selinger 2001-2019
</metadata>
<g transform="translate(0.000000,253.000000) scale(0.100000,-0.100000)"
fill="#000000" stroke="none">
<path d="M135 2418 c-3 -7 -4 -530 -3 -1163 l3 -1150 1163 -3 1162 -2 0 1165
0 1165 -1160 0 c-919 0 -1162 -3 -1165 -12z m160 -52 c39 -18 114 -59 169 -90
54 -32 158 -86 232 -121 74 -35 134 -66 134 -69 0 -3 -41 13 -91 35 -50 23
-93 38 -96 35 -5 -5 57 -36 157 -79 l25 -11 -28 -4 c-19 -2 -75 20 -185 73
-87 42 -165 74 -175 71 -10 -2 -25 4 -35 13 -20 21 -146 96 -197 117 -27 11
-35 20 -35 39 0 36 39 33 125 -9z m125 -2 c108 -51 233 -144 194 -144 -3 0
-58 29 -122 64 -64 35 -139 75 -167 89 l-50 26 35 1 c21 0 66 -15 110 -36z
m156 9 c32 -14 80 -43 107 -64 28 -20 97 -63 154 -96 214 -119 306 -244 269
-367 -32 -106 -110 -175 -185 -162 -50 8 -118 46 -130 74 -6 12 -11 46 -11 73
0 84 55 139 139 139 35 0 43 -4 56 -31 9 -17 15 -32 13 -34 -2 -2 -24 3 -49
12 -29 10 -53 13 -65 8 -15 -6 -11 -9 24 -16 23 -4 47 -11 52 -14 15 -9 12
-42 -5 -59 -15 -15 -20 -36 -9 -36 23 0 75 36 80 56 8 32 -12 86 -42 115 -50
47 -164 19 -212 -52 -21 -30 -23 -43 -19 -102 4 -57 9 -73 32 -97 49 -51 145
-72 226 -50 48 13 116 86 124 134 4 19 6 71 4 114 -4 72 -7 81 -42 130 -55 74
-26 64 54 -19 60 -61 69 -75 69 -107 -1 -42 -36 -134 -70 -182 -21 -29 -21
-32 -4 -28 11 2 32 29 52 66 30 57 52 72 52 37 0 -7 12 -27 28 -43 15 -16 35
-41 44 -55 12 -17 31 -27 58 -32 22 -4 54 -13 69 -21 22 -11 42 -12 85 -6 l56
9 0 -49 0 -48 -202 1 c-136 1 -190 4 -163 10 22 4 81 8 130 9 72 1 84 4 60 11
-16 5 -52 7 -80 4 -55 -6 -81 4 -72 29 4 11 19 16 47 16 25 0 39 4 35 10 -3 6
-24 10 -46 10 -40 0 -48 7 -27 28 20 20 7 21 -77 7 -79 -13 -101 -20 -160 -53
-16 -9 -57 -18 -91 -20 -50 -3 -69 0 -112 22 -63 32 -121 81 -133 114 -16 41
6 128 46 182 49 66 120 98 185 81 154 -40 176 -261 25 -261 -38 0 -51 6 -85
36 -52 47 -56 18 -5 -33 33 -33 39 -35 79 -30 118 16 155 79 125 215 -13 65
-86 146 -182 205 -40 24 -114 70 -165 102 -51 31 -95 55 -98 52 -6 -6 48 -45
126 -92 36 -21 101 -64 145 -96 130 -92 159 -138 35 -55 -36 24 -95 60 -131
79 -36 20 -110 69 -164 109 -54 39 -125 87 -159 105 l-61 33 56 0 c40 0 73 -8
115 -27z m139 -4 c69 -44 276 -203 300 -230 18 -21 16 -20 -30 6 -67 38 -189
120 -248 167 -27 21 -68 46 -93 57 -24 11 -44 22 -44 25 0 18 72 2 115 -25z
m147 -10 c37 -46 151 -139 170 -139 7 0 -28 41 -77 90 -88 89 -89 90 -58 90
26 0 37 -8 60 -41 15 -23 55 -72 88 -111 33 -38 71 -84 85 -103 14 -19 28 -34
33 -35 12 0 107 -74 107 -83 0 -11 -36 1 -89 30 -53 29 -82 51 -234 173 -65
52 -132 105 -150 118 -65 47 -66 52 -15 52 43 0 50 -4 80 -41z m218 -30 c30
-40 93 -114 142 -164 l88 -93 -37 1 c-21 0 -30 2 -20 5 14 3 16 7 6 18 -6 8
-19 14 -29 14 -9 0 -38 26 -63 58 -25 31 -77 89 -117 127 -39 39 -75 78 -81
88 -8 15 -5 17 24 17 31 0 40 -7 87 -71z m122 -37 c43 -59 94 -126 114 -149
32 -37 34 -43 17 -43 -37 0 -253 249 -253 292 0 4 10 8 23 7 16 0 41 -27 99
-107z m26 31 c28 -43 68 -100 89 -128 24 -33 29 -43 14 -30 -13 11 -56 63 -95
115 -90 120 -90 120 -73 120 7 0 37 -35 65 -77z m18 66 c4 -8 9 -7 15 2 11 18
21 6 23 -28 2 -35 32 -91 88 -168 62 -84 66 -95 23 -55 -20 19 -55 62 -78 95
-23 33 -56 79 -74 103 -18 24 -33 48 -33 53 0 13 27 11 36 -2z m156 -127 c41
-84 58 -125 42 -107 -37 45 -137 245 -122 244 7 0 43 -62 80 -137z m3 92 c6
-21 38 -90 69 -152 32 -62 56 -115 53 -118 -12 -12 -157 273 -157 308 0 24 24
-2 35 -38z m85 -75 c86 -191 83 -182 68 -177 -13 4 -131 232 -143 276 -4 15
-2 22 7 22 7 0 38 -55 68 -121z m10 87 c6 -19 25 -53 42 -77 32 -45 48 -112
29 -123 -6 -4 -11 -2 -11 4 0 6 -22 59 -50 117 -27 58 -50 108 -50 109 0 2 6
4 14 4 8 0 20 -15 26 -34z m77 2 c-3 -7 -5 -2 -5 12 0 14 2 19 5 13 2 -7 2
-19 0 -25z m58 -19 c-8 -28 -16 -53 -18 -55 -6 -6 -16 89 -10 98 2 5 13 8 23
8 17 0 17 -3 5 -51z m64 24 c-5 -15 -17 -75 -25 -133 -16 -117 -42 -220 -55
-220 -5 0 -9 9 -9 19 0 27 36 239 50 292 17 66 18 69 34 69 13 0 14 -5 5 -27z
m51 19 c0 -5 -9 -44 -20 -88 -11 -43 -26 -125 -35 -182 -17 -119 -38 -173 -89
-230 -61 -67 -117 -76 -146 -23 -7 15 -5 25 10 43 20 23 20 23 35 3 9 -11 13
-25 11 -32 -3 -7 1 -13 10 -13 39 0 21 65 -21 76 -32 8 -73 -18 -81 -50 -7
-29 18 -81 48 -97 29 -16 86 -13 132 6 86 36 172 161 196 284 25 128 74 311
83 311 5 0 6 -11 2 -27 -4 -16 -9 -55 -10 -88 -1 -33 -7 -72 -13 -88 -7 -15
-18 -57 -27 -92 -30 -129 -137 -291 -224 -339 -90 -48 -194 -27 -230 48 -12
25 -11 36 0 74 17 53 48 79 105 88 34 5 45 2 71 -20 17 -14 36 -26 42 -26 25
0 74 153 100 315 12 72 24 136 26 143 5 13 25 17 25 4z m46 -9 c-4 -9 -10 -37
-13 -62 -8 -58 10 -48 27 16 7 27 17 52 21 57 20 22 18 -6 -5 -95 -14 -52 -30
-121 -36 -154 -15 -82 -27 -110 -76 -185 -39 -60 -104 -133 -104 -117 0 4 13
25 29 48 41 56 67 140 95 309 31 184 35 200 53 200 10 0 13 -6 9 -17z m158
-11 c-9 -16 -25 -39 -35 -53 -18 -23 -19 -23 -19 -3 0 12 5 35 11 53 8 23 17
31 36 31 24 0 24 0 7 -28z m66 20 c0 -4 -4 -12 -9 -17 -5 -6 -35 -57 -66 -115
-53 -99 -56 -103 -52 -62 6 49 92 202 114 202 7 0 13 -4 13 -8z m10 -69 c-83
-153 -146 -251 -154 -242 -2 2 29 63 70 134 40 72 80 142 88 158 8 15 20 27
26 27 7 0 -7 -35 -30 -77z m117 70 c-3 -5 -44 -73 -92 -152 -48 -80 -99 -163
-114 -185 -44 -66 -45 -74 -2 -26 22 24 75 103 117 175 43 71 86 145 96 163
17 27 25 32 59 32 l39 0 -26 -52 c-104 -208 -204 -345 -339 -466 -64 -57 -80
-64 -70 -30 l7 21 -36 -23 c-21 -12 -39 -20 -42 -17 -6 6 14 26 80 81 26 21
45 40 42 43 -3 3 -12 0 -21 -7 -49 -40 -4 48 75 150 15 19 60 95 101 168 67
122 75 132 101 132 16 0 27 -3 25 -7z m183 2 c0 -10 -203 -321 -238 -365 -20
-25 -68 -75 -107 -112 -38 -38 -63 -68 -56 -68 8 0 58 44 110 98 77 79 117
133 206 275 106 169 111 176 143 177 17 0 32 -2 32 -5 0 -9 -172 -280 -229
-360 -75 -105 -94 -136 -88 -142 3 -3 18 13 34 35 42 59 134 193 218 316 58
84 75 104 75 84 0 -15 -41 -87 -105 -182 -58 -87 -107 -162 -110 -167 -4 -5
-2 -9 4 -9 5 0 53 65 108 145 71 106 99 140 101 125 7 -41 -195 -328 -298
-423 -33 -31 -90 -73 -126 -93 -36 -20 -91 -56 -122 -79 -65 -49 -136 -75
-154 -57 -8 8 -4 14 18 22 64 23 71 30 22 25 -56 -7 -69 7 -37 41 26 28 7 34
-23 7 -57 -51 15 -143 112 -143 16 0 32 -4 35 -10 4 -6 -16 -10 -53 -10 -54 0
-61 3 -95 36 -47 47 -57 95 -30 132 40 53 121 54 133 2 8 -32 34 -32 38 0 4
37 -32 90 -61 90 -31 0 -102 -52 -128 -93 -20 -32 -22 -86 -4 -129 10 -25 -12
-23 -25 3 -7 11 -12 41 -12 66 0 55 19 84 88 133 41 29 58 34 104 35 l55 0 23
-47 c12 -27 26 -48 31 -48 13 0 184 126 215 159 47 49 21 36 -57 -28 -70 -57
-125 -91 -147 -91 -21 0 -9 16 25 34 58 31 64 51 8 22 -29 -14 -55 -26 -59
-26 -15 0 33 43 66 60 40 21 135 118 125 128 -3 4 -22 -12 -41 -35 -33 -40
-139 -113 -163 -113 -27 0 -6 37 58 104 37 39 89 97 114 128 43 54 60 81 172
276 38 67 51 82 71 82 13 0 24 -2 24 -5z m-2090 -95 c52 -26 96 -62 59 -48 -8
3 -40 13 -71 22 -45 13 -58 21 -58 36 0 25 0 26 70 -10z m55 -75 c101 -41 423
-205 403 -205 -29 0 -138 49 -239 108 -100 58 -243 122 -274 122 -8 0 -15 5
-15 11 0 13 20 7 125 -36z m-41 -20 c39 -8 89 -28 116 -45 50 -32 86 -67 78
-75 -2 -3 -66 18 -141 47 -107 40 -137 56 -137 70 0 21 -3 21 84 3z m2120
-143 c-132 -200 -204 -283 -289 -337 -48 -31 -145 -78 -145 -70 0 2 43 34 97
71 108 76 151 116 234 224 88 113 93 121 125 179 19 37 30 49 32 37 2 -10 -22
-57 -54 -104z m-1759 47 c132 -65 161 -88 55 -45 -90 37 -211 106 -186 106 3
0 61 -28 131 -61z m-326 10 c52 -23 120 -46 151 -51 30 -6 78 -19 105 -29 28
-9 71 -25 97 -34 48 -17 65 -30 51 -38 -5 -3 -50 6 -102 19 -52 13 -97 22 -99
19 -6 -5 59 -32 125 -51 29 -8 53 -20 53 -25 0 -17 -29 -9 -182 50 -84 33
-173 64 -198 71 -25 6 -54 14 -65 17 -14 3 -17 2 -10 -5 6 -6 49 -24 97 -41
48 -16 131 -48 185 -70 54 -21 112 -42 128 -47 19 -5 24 -9 14 -11 -28 -7
-136 25 -280 83 -76 30 -143 54 -150 54 -27 0 9 -20 125 -66 190 -77 113 -63
-121 22 l-43 16 0 58 0 59 62 -25 c34 -13 63 -22 66 -19 6 5 -55 42 -95 57
-32 12 -44 28 -22 28 6 0 55 -18 108 -41z m2137 -63 c-9 -37 -118 -173 -223
-278 -53 -54 -91 -98 -84 -98 19 0 243 229 276 284 28 45 30 46 33 22 4 -32
-13 -55 -123 -167 -90 -91 -207 -181 -290 -222 -58 -29 -125 -45 -125 -29 0 6
16 14 35 18 52 9 54 25 3 19 l-43 -6 45 22 c25 13 78 38 118 57 91 43 196 151
303 310 70 104 88 121 75 68z m-935 -10 c-7 -8 -27 -17 -46 -20 -42 -8 -121
-86 -134 -133 -10 -36 -4 -70 23 -121 9 -17 16 -34 16 -38 0 -14 -43 32 -66
72 -20 34 -23 49 -18 85 13 78 122 169 203 169 27 0 31 -2 22 -14z m-251 -79
c0 -7 -12 1 -25 16 -14 15 -25 33 -25 40 0 7 12 -1 25 -16 14 -15 25 -33 25
-40z m265 43 c3 -5 -1 -10 -10 -10 -58 0 -145 -85 -145 -142 0 -38 22 -80 60
-112 29 -23 40 -26 118 -27 82 -1 85 -1 57 -14 -16 -8 -57 -14 -90 -15 -58 0
-63 2 -96 38 -55 57 -69 83 -69 125 0 45 18 82 57 119 43 41 104 61 118 38z
m83 -2 c16 -16 15 -38 -1 -38 -20 0 -58 30 -52 41 9 13 39 11 53 -3z m-1233
-98 c120 -40 111 -52 -12 -17 -49 14 -101 28 -117 32 -27 6 -55 30 -56 47 0 4
19 -1 43 -11 23 -10 87 -33 142 -51z m2028 -84 c-63 -65 -89 -101 -49 -66 16
14 44 41 62 60 24 25 34 30 34 19 1 -53 -367 -300 -428 -287 -11 3 3 15 43 35
92 47 170 110 280 224 77 80 101 100 103 85 2 -12 -14 -38 -45 -70z m-1815 60
c62 -14 92 -29 80 -42 -4 -3 -32 3 -63 15 -31 12 -65 21 -75 21 -11 0 -20 5
-20 10 0 12 1 12 78 -4z m-153 -31 c44 -7 105 -25 135 -39 64 -29 57 -31 -37
-12 -37 8 -120 19 -183 26 -150 15 -160 17 -160 36 0 13 12 14 83 9 45 -4 118
-13 162 -20z m-120 -51 c28 -4 61 -13 75 -20 25 -13 25 -13 -12 -14 -21 0 -38
5 -38 10 0 6 -7 10 -15 10 -8 0 -15 -4 -15 -9 0 -12 -17 -18 -74 -26 -39 -6
-46 -5 -46 9 0 12 10 16 39 16 22 0 43 5 46 10 4 6 -12 10 -39 10 -27 0 -46 5
-46 11 0 7 14 9 38 5 20 -3 60 -8 87 -12z m-22 -71 c-7 -2 -19 -2 -25 0 -7 3
-2 5 12 5 14 0 19 -2 13 -5z m2157 -12 c0 -15 -15 -25 -55 -40 -31 -12 -67
-28 -81 -37 -13 -9 -28 -13 -32 -9 -4 4 -2 9 4 12 5 2 41 23 80 48 80 50 84
52 84 26z m-2200 5 c0 -2 -13 -6 -30 -8 -16 -3 -30 -1 -30 4 0 4 14 8 30 8 17
0 30 -2 30 -4z m422 -48 c160 -94 188 -115 205 -155 10 -25 12 -48 7 -72 -7
-35 -8 -34 -19 32 -16 90 -27 97 -24 15 2 -37 0 -70 -4 -74 -4 -4 -7 8 -7 27
-1 19 -6 43 -13 54 -52 88 -116 134 -230 165 -70 19 -86 20 -167 11 -49 -6
-121 -22 -159 -35 l-71 -24 0 28 c0 27 3 29 73 44 127 27 190 34 264 31 64 -3
80 -8 145 -47z m18 32 c0 -5 -6 -10 -14 -10 -8 0 -18 5 -21 10 -3 6 3 10 14
10 12 0 21 -4 21 -10z m545 -45 c0 -5 -20 -13 -45 -16 -46 -6 -46 -10 0 -12
14 -1 27 -6 30 -12 7 -13 -109 -19 -140 -6 -24 8 -22 10 30 35 54 26 125 32
125 11z m-636 -16 c17 -6 31 -15 31 -21 0 -6 -8 -7 -17 -3 -10 4 -51 12 -92
18 -87 12 -159 1 -263 -43 -53 -22 -68 -25 -68 -14 0 15 70 49 130 64 52 12
242 12 279 -1z m1851 1 c0 -5 -17 -10 -37 -10 -28 0 -34 3 -23 10 20 13 60 13
60 0z m-1895 -36 c33 -8 77 -26 98 -40 40 -27 97 -106 97 -136 0 -33 -19 -19
-30 22 -25 93 -139 149 -277 137 -64 -5 -131 -23 -122 -32 2 -2 42 1 89 7 62
7 99 7 137 -2 77 -17 73 -28 -8 -22 -89 6 -202 -13 -232 -40 -20 -18 -20 -19
-2 -13 111 36 190 41 280 16 24 -6 13 -9 -60 -15 -75 -7 -218 -43 -322 -83 -8
-3 -13 3 -13 16 0 12 5 21 10 21 6 0 10 5 10 11 0 5 -4 7 -10 4 -6 -4 -10 9
-10 33 0 36 3 40 48 61 106 49 198 79 227 74 17 -2 57 -11 90 -19z m151 -26
c63 -49 94 -102 94 -163 0 -55 -25 -106 -60 -125 -32 -17 -33 -8 -4 31 42 56
46 76 29 135 -11 39 -28 65 -67 103 -59 58 -55 67 8 19z m1744 22 c0 -6 -30
-10 -71 -10 -44 0 -68 4 -64 10 3 6 35 10 71 10 36 0 64 -4 64 -10z m-1322
-16 c19 -4 34 -14 38 -26 7 -25 -9 -37 -51 -39 l-30 -1 29 -12 c40 -18 21 -26
-78 -33 l-84 -6 -36 49 c-19 27 -36 52 -36 56 0 6 48 11 171 16 26 1 60 -1 77
-4z m1236 -14 c33 0 57 -2 54 -5 -3 -3 -49 -13 -102 -22 -88 -14 -99 -14 -113
0 -27 26 -6 40 51 33 28 -3 78 -6 110 -6z m-1127 -47 c10 -13 16 -15 19 -5 7
14 34 16 34 2 0 -5 5 -10 10 -10 6 0 10 7 10 15 0 9 9 15 25 15 21 0 25 -5 25
-30 0 -28 -1 -29 -57 -32 -57 -3 -58 -3 -55 -31 3 -33 -24 -123 -40 -133 -8
-5 -9 8 -6 40 3 25 2 46 -1 46 -8 0 -41 -98 -41 -119 0 -6 -7 -28 -15 -48 -12
-28 -18 -33 -29 -24 -11 9 -7 28 25 106 36 90 51 136 64 198 6 32 13 33 32 10z
m258 7 c-41 -10 -93 -12 -99 -2 -2 4 26 8 62 8 48 1 58 -1 37 -6z m925 -10
c-53 -12 -150 -18 -150 -9 0 10 46 16 125 16 52 1 55 0 25 -7z m-213 -20 c56
-34 62 -131 12 -186 -10 -11 -19 -23 -19 -26 0 -3 46 3 103 13 123 22 147 23
147 5 0 -21 -99 -38 -255 -43 l-140 -5 -65 34 c-64 33 -65 34 -68 79 -4 60 22
84 130 120 102 33 115 34 155 9z m-582 1 c-12 -11 -229 -21 -218 -10 10 10 59
15 153 17 43 1 70 -2 65 -7z m230 -21 c25 -7 19 -8 -30 -9 -33 0 -73 6 -90 13
-28 12 -26 13 30 8 33 -2 74 -8 90 -12z m595 1 c0 -5 -15 -12 -32 -17 l-33 -8
33 -3 c47 -6 42 -30 -5 -26 -21 2 -49 7 -63 10 l-25 6 25 7 c20 6 16 8 -22 9
-45 1 -65 11 -51 25 10 9 173 7 173 -3z m-724 -16 c27 -8 60 -15 74 -16 61 -3
-51 -17 -169 -22 -108 -5 -115 -4 -51 3 41 5 84 12 95 14 26 6 -223 -3 -255
-10 -28 -5 -59 10 -46 23 4 4 58 11 119 14 62 3 128 6 148 7 20 1 58 -5 85
-13z m-572 -55 c-19 -52 -44 -86 -44 -58 0 19 51 120 57 114 3 -3 -3 -28 -13
-56z m-624 24 c0 -8 7 -14 15 -14 8 0 15 5 15 10 0 6 11 15 25 22 21 9 30 7
59 -13 19 -13 40 -34 45 -47 9 -19 7 -27 -14 -47 -30 -31 -39 -31 -65 -3 -25
27 -25 35 0 50 24 15 26 28 5 28 -8 0 -22 -11 -31 -25 -37 -56 35 -129 139
-141 l58 -7 48 47 c44 43 49 46 54 27 3 -12 13 -21 22 -21 9 0 15 6 12 13 -2
6 4 23 14 36 11 14 19 40 19 62 l0 39 81 0 c59 0 80 -3 77 -12 -2 -7 -17 -48
-33 -90 l-30 -78 -95 0 c-80 -1 -103 -4 -145 -25 -63 -31 -93 -31 -155 0 -28
14 -50 21 -50 16 0 -16 102 -61 138 -61 31 0 33 -2 21 -16 -11 -13 -26 -15
-77 -11 -60 5 -67 8 -113 53 -78 76 -107 173 -68 220 13 16 29 9 29 -12z m784
-26 c6 -52 37 -494 36 -525 0 -20 -5 -23 -36 -23 l-36 0 6 43 c7 47 7 250 1
430 -4 96 -2 117 10 117 9 0 16 -15 19 -42z m-925 8 c17 -9 20 -15 10 -19 -8
-3 -58 -26 -112 -51 -91 -42 -98 -44 -95 -25 2 15 17 27 45 38 23 9 48 24 55
33 11 15 51 36 68 37 3 0 16 -6 29 -13z m1479 -3 c3 -10 -14 -13 -60 -13 -83
-1 -317 -25 -326 -35 -4 -4 31 -5 78 -1 245 17 300 19 300 7 0 -15 -6 -17
-140 -40 -120 -21 -246 -59 -200 -60 14 -1 41 4 60 9 19 6 73 17 120 24 47 8
99 18 115 21 21 5 27 4 20 -3 -13 -14 -288 -122 -310 -122 -10 0 -25 20 -39
53 -27 59 -23 65 48 66 35 1 180 26 215 37 8 2 12 7 9 9 -3 3 -45 -1 -94 -9
-172 -28 -197 -29 -223 -7 -12 11 -20 24 -17 29 5 8 107 21 326 42 103 9 112
9 118 -7z m-418 -3 c-36 -12 -60 -12 -60 0 0 6 19 10 43 9 36 -1 38 -2 17 -9z
m-63 -53 c12 -25 13 -31 1 -38 -32 -21 -48 1 -48 65 0 25 2 27 16 15 8 -7 22
-26 31 -42z m1063 44 c0 -4 -28 -11 -61 -15 -78 -8 -114 -8 -106 0 18 19 167
32 167 15z m-2225 -21 c-3 -5 -14 -10 -23 -9 -14 0 -13 2 3 9 27 11 27 11 20
0z m217 -27 c22 -25 81 -133 73 -133 -29 0 -82 67 -100 128 -8 26 6 29 27 5z
m1973 -4 c-58 -12 -144 -11 -125 1 8 5 49 9 90 9 66 -1 70 -2 35 -10z m-2011
-37 c5 -19 31 -53 63 -82 49 -45 52 -50 30 -50 -54 0 -135 91 -137 153 0 31
33 15 44 -21z m426 23 c-7 -8 -17 -15 -22 -15 -6 0 -5 7 2 15 7 8 17 15 22 15
6 0 5 -7 -2 -15z m-475 -47 c6 -20 27 -55 44 -77 35 -45 30 -50 -23 -25 -34
17 -56 49 -56 84 0 10 -4 22 -10 25 -6 4 -10 -11 -10 -39 0 -52 14 -69 79 -99
40 -18 43 -21 22 -25 -33 -5 -112 16 -135 36 -22 20 -46 65 -46 87 0 18 88 77
108 73 8 -2 20 -20 27 -40z m903 -159 c-1 -176 -3 -191 -21 -200 -10 -6 -30
-8 -44 -4 -20 5 -24 11 -20 28 2 12 18 90 36 172 40 192 40 195 46 195 3 0 5
-86 3 -191z m-180 103 c-22 -65 -19 -84 7 -62 25 20 37 0 24 -38 -9 -25 -17
-32 -38 -32 -15 0 -36 6 -47 14 -18 14 -18 17 24 101 24 48 45 86 47 84 2 -2
-6 -32 -17 -67z m351 42 c26 -34 27 -54 1 -54 -11 0 -20 -4 -20 -10 0 -5 11
-10 25 -10 28 0 65 -35 65 -62 0 -11 -10 -20 -25 -23 -77 -16 -80 -20 -12 -23
62 -3 85 -13 55 -25 -8 -4 -7 -6 3 -6 9 -1 20 -8 23 -16 6 -18 -29 -35 -72
-35 -15 0 -34 -5 -42 -10 -12 -8 -12 -10 5 -9 11 0 39 4 63 8 31 6 42 5 42 -4
0 -20 -24 -34 -74 -44 -63 -12 -69 -21 -15 -21 43 0 43 0 24 -19 -27 -27 -71
-37 -78 -18 -10 27 -41 373 -34 390 10 25 43 21 66 -9z m467 -6 c9 -18 12 -34
7 -35 -5 -2 -24 -12 -43 -23 -19 -11 -51 -27 -70 -36 -19 -9 -74 -33 -121 -55
-47 -21 -91 -39 -97 -39 -6 0 -17 18 -23 41 -12 37 -11 42 7 52 34 21 289 125
306 126 10 1 25 -13 34 -31z m92 0 c55 -32 60 -33 160 -31 57 2 143 9 190 18
112 19 112 19 112 -9 0 -20 -7 -25 -42 -32 l-43 -8 43 -4 c32 -2 42 -7 42 -21
0 -16 -5 -17 -37 -10 -21 5 -55 11 -75 14 -40 6 -50 20 -20 28 34 9 -84 7
-171 -3 -79 -9 -93 -8 -130 9 -37 16 -112 81 -94 81 4 0 33 -15 65 -32z m-792
-54 c-7 -28 -36 -33 -36 -6 0 10 8 29 17 42 16 22 18 23 21 7 2 -10 1 -29 -2
-43z m-183 21 c-2 -5 -31 -11 -65 -13 -41 -2 -59 0 -53 7 21 20 122 25 118 6z
m-731 -110 c26 -14 48 -28 48 -31 0 -2 -18 -4 -40 -4 -34 0 -42 4 -50 25 -6
15 -17 25 -30 25 -17 0 -20 6 -19 48 l0 47 21 -42 c15 -29 35 -49 70 -68z
m712 66 c3 -5 -2 -19 -12 -31 -16 -20 -28 -23 -99 -24 -115 -1 -124 13 -31 45
56 20 133 25 142 10z m946 -1 c0 -5 13 -10 29 -10 16 0 36 -7 45 -15 8 -8 27
-15 42 -15 25 0 27 -2 13 -15 -8 -9 -49 -26 -90 -40 l-74 -24 70 6 c89 7 79
-7 -28 -39 -78 -22 -79 -22 -93 -3 -8 10 -14 21 -14 25 0 3 28 18 63 34 34 15
57 30 51 32 -6 3 -35 -7 -65 -21 -54 -25 -79 -18 -43 11 18 14 17 15 -8 10
-50 -11 -39 13 19 43 62 32 83 37 83 21z m337 4 c-3 -3 -12 -4 -19 -1 -8 3 -5
6 6 6 11 1 17 -2 13 -5z m-60 -10 c-3 -3 -12 -4 -19 -1 -8 3 -5 6 6 6 11 1 17
-2 13 -5z m-1047 -65 c0 -16 -7 -59 -16 -94 -17 -65 -34 -81 -52 -48 -6 9 -23
16 -43 17 -29 1 -35 5 -39 30 -7 39 -28 45 -32 9 -2 -20 -9 -29 -25 -31 -18
-3 -22 2 -25 29 -4 43 -28 51 -28 10 0 -42 -29 -41 -100 4 -30 19 -59 35 -66
35 -14 0 -39 28 -31 36 3 3 78 -2 167 -12 157 -17 162 -18 181 -46 31 -42 46
-35 65 30 9 31 18 60 21 65 9 15 23 -5 23 -34z m1218 25 c34 -4 55 -11 59 -20
8 -21 -2 -27 -25 -15 -10 5 -54 15 -98 20 -74 9 -82 8 -129 -14 -67 -32 -91
-54 -126 -117 -23 -43 -29 -48 -29 -28 0 64 20 99 79 139 76 52 87 53 269 35z
m-1762 -8 c10 -8 17 -17 14 -19 -3 -3 -68 -16 -145 -31 -77 -14 -167 -36 -200
-49 -97 -40 -107 -42 -103 -21 2 12 24 23 70 35 38 11 107 37 155 59 96 43
172 53 209 26z m1740 -42 c63 -26 74 -41 74 -101 0 -105 -46 -163 -131 -163
-40 0 -55 5 -84 31 -48 42 -48 81 1 44 33 -25 48 -18 26 13 -39 57 -34 72 26
72 26 1 26 1 8 15 -31 24 -51 18 -90 -25 -32 -36 -36 -46 -36 -94 0 -30 5 -67
11 -82 15 -41 155 -174 222 -213 38 -22 57 -39 57 -52 0 -10 -2 -19 -5 -19
-17 0 -100 63 -164 124 -55 53 -70 64 -58 41 22 -44 116 -129 175 -159 29 -15
52 -31 52 -36 0 -12 -67 21 -127 62 -24 16 -83 67 -131 113 l-89 84 -141 -6
c-78 -3 -142 -3 -142 0 0 4 7 22 17 41 16 35 52 56 97 56 12 0 28 5 36 11 11
8 2 9 -35 5 -65 -7 -76 0 -68 47 5 30 12 41 37 52 l31 13 -32 1 c-46 1 -43 28
5 40 112 29 146 21 80 -19 -31 -19 -31 -20 -8 -18 22 3 26 -3 37 -46 7 -27 13
-63 15 -80 l3 -31 -90 -5 -90 -5 64 -7 c35 -5 82 -8 103 -8 22 0 48 -5 60 -11
29 -16 33 -5 14 41 -20 50 -21 142 -2 178 19 36 41 55 101 86 58 30 116 33
171 10z m-2156 -15 c0 -5 -4 -9 -10 -9 -5 0 -10 7 -10 16 0 8 5 12 10 9 6 -3
10 -10 10 -16z m1449 -110 c-18 -34 -45 -73 -60 -88 -35 -35 -125 -87 -201
-118 -53 -22 -72 -25 -128 -19 -100 9 -155 32 -218 90 -54 52 -62 76 -23 76
10 0 54 -18 97 -40 91 -46 142 -51 264 -25 95 20 153 61 191 137 35 69 55 86
45 37 -15 -78 -86 -144 -206 -191 -42 -16 -78 -22 -152 -22 l-96 -1 -62 43
c-42 30 -58 38 -51 24 20 -37 70 -70 125 -83 74 -16 221 2 292 36 67 33 145
116 169 180 26 70 39 86 43 52 2 -16 -10 -52 -29 -88z m81 82 c0 -52 -41 -164
-87 -239 -53 -85 -52 -106 1 -33 45 61 93 166 102 220 8 51 25 54 18 4 -10
-69 -43 -167 -70 -206 -14 -21 -23 -41 -20 -45 9 -8 30 23 73 106 20 41 39 69
41 62 5 -13 -58 -142 -87 -179 -16 -21 -27 -24 -80 -24 -33 0 -63 2 -66 5 -3
3 26 47 64 98 71 95 91 143 91 219 0 23 5 41 10 41 6 0 10 -13 10 -29z m-1090
10 c21 -6 16 -9 -29 -15 -69 -10 -49 -26 35 -26 72 0 154 -36 172 -76 25 -53
5 -137 -39 -168 -53 -37 -139 -3 -139 54 0 15 9 38 19 51 19 23 20 23 55 6 42
-19 44 -32 14 -64 -29 -31 -16 -40 24 -16 72 41 35 136 -69 181 -41 17 -57 19
-113 11 -74 -11 -201 -48 -308 -90 -81 -32 -82 -33 -82 -20 0 5 20 17 45 27
25 9 45 21 45 25 0 12 -2 12 -43 -6 -42 -17 -47 -18 -47 -7 0 4 24 16 53 26
28 10 78 34 110 53 80 48 226 74 297 54z m1180 -57 c0 -8 -4 -12 -10 -9 -5 3
-10 10 -10 16 0 5 5 9 10 9 6 0 10 -7 10 -16z m-1556 -13 c-65 -30 -87 -35
-82 -20 4 13 68 36 103 38 11 0 2 -7 -21 -18z m820 -31 c19 -18 -33 -27 -121
-20 -96 7 -118 14 -93 31 17 10 200 1 214 -11z m-552 -5 c-29 -7 -85 -26 -125
-43 -204 -84 -227 -92 -227 -74 0 19 18 27 205 93 71 25 126 39 155 38 l45 -1
-53 -13z m1278 -127 c-12 -43 -55 -98 -76 -98 -19 0 -19 1 21 60 21 31 39 75
47 113 l13 62 3 -50 c2 -27 -1 -67 -8 -87z m-1146 93 c-5 -5 -49 -14 -98 -21
-48 -6 -124 -22 -168 -36 -84 -27 -128 -27 -66 0 82 35 205 65 273 65 41 1 65
-3 59 -8z m965 -53 c-13 -18 -37 -49 -55 -69 -17 -20 -33 -41 -35 -46 -2 -6
-33 -14 -69 -17 -61 -6 -64 -6 -45 9 11 9 46 30 78 47 32 18 77 53 100 79 46
51 62 49 26 -3z m-707 -33 c-1 -38 -7 -72 -12 -75 -6 -4 -6 -19 0 -40 17 -60
-3 -86 -44 -55 -16 12 -18 23 -13 77 3 35 11 87 17 116 10 46 15 53 33 50 20
-3 22 -8 19 -73z m296 69 c13 -4 22 -14 22 -25 0 -23 -12 -24 -69 -2 -36 14
-40 18 -25 24 24 10 43 10 72 3z m-212 -75 c34 -36 176 -109 213 -109 15 0 44
-3 65 -7 l39 -6 -44 -23 c-58 -31 -27 -30 65 1 86 29 117 31 176 10 53 -19
137 -19 215 0 33 8 74 14 90 14 l30 -1 -30 -13 c-16 -8 -63 -19 -102 -26 -40
-7 -73 -17 -73 -21 0 -4 5 -8 11 -8 5 0 8 -4 5 -9 -3 -4 -85 -11 -183 -14 -98
-3 -196 -10 -218 -16 -51 -13 -415 -14 -450 -1 -21 8 -52 56 -42 66 1 2 33
-12 71 -31 73 -38 117 -43 170 -21 18 7 65 19 104 26 77 13 87 30 19 31 -49 0
-178 31 -178 42 1 4 1 14 1 21 0 13 8 12 53 -3 60 -21 196 -46 204 -38 3 3
-15 11 -38 17 -24 6 -86 25 -137 42 -85 27 -93 32 -88 52 3 11 6 29 6 39 0 25
12 21 46 -14z m-446 7 c0 -16 -30 -26 -82 -26 -40 0 -55 24 -20 33 41 11 102
7 102 -7z m1877 -28 c-3 -7 -5 -2 -5 12 0 14 2 19 5 13 2 -7 2 -19 0 -25z
m-2171 7 c-10 -8 -24 -16 -30 -18 -6 -2 -8 -7 -5 -11 3 -3 28 1 55 9 65 20 80
20 64 0 -11 -13 -5 -15 46 -15 75 0 62 -11 -51 -45 -49 -15 -107 -36 -127 -46
-32 -17 -38 -17 -38 -4 0 8 4 15 8 15 5 0 17 7 28 15 18 15 18 15 -8 9 -27 -6
-28 -5 -28 34 0 36 3 41 38 55 49 20 74 21 48 2z m2142 -184 c17 -12 32 -29
32 -37 0 -13 -5 -12 -31 3 -53 30 -173 148 -198 194 -22 41 -18 38 70 -47 52
-49 109 -100 127 -113z m-1876 -119 c4 -160 10 -248 17 -255 8 -8 11 1 12 34
0 24 4 64 8 89 l7 45 12 -60 c7 -33 14 -80 15 -105 l2 -45 -46 -9 c-72 -14
-79 -8 -78 71 1 177 17 491 24 503 17 27 22 -26 27 -268z m1899 268 c5 0 9 -7
9 -15 0 -12 -4 -13 -25 -3 -27 12 -35 34 -9 24 9 -3 20 -6 25 -6z m-1783 -16
c31 -21 28 -38 -5 -29 -34 8 -55 24 -47 36 8 13 27 11 52 -7z m1686 2 c-3 -9
15 -30 50 -56 31 -23 56 -49 56 -57 0 -12 -3 -12 -18 -1 -26 18 -83 70 -111
101 l-24 27 26 0 c19 0 25 -4 21 -14z m106 -56 c0 -18 -19 -10 -52 21 l-33 30
43 -21 c23 -11 42 -25 42 -30z m-1630 32 c0 -21 -38 -42 -70 -39 -48 4 -47 21
2 34 58 14 68 14 68 5z m-365 -28 c-20 -15 -75 -32 -123 -39 -15 -2 -49 -13
-75 -24 -54 -23 -67 -26 -67 -12 0 24 183 89 255 90 29 0 29 0 10 -15z m194
-29 c17 -24 41 -65 52 -89 18 -43 69 -247 69 -281 0 -32 -19 -3 -40 63 -13 37
-47 128 -76 203 -30 75 -54 139 -54 143 0 17 20 1 49 -39z m1454 8 c38 -19 71
-93 63 -142 -8 -54 -73 -111 -124 -111 -46 0 -71 22 -53 44 9 11 9 19 -1 35
-11 18 -10 24 9 42 24 24 43 18 43 -14 0 -15 3 -18 11 -10 15 15 2 51 -23 64
-45 24 -111 -21 -154 -105 l-27 -53 22 -72 c18 -60 31 -82 74 -125 29 -29 70
-67 92 -84 l40 -32 -30 0 c-52 0 -167 108 -205 191 -22 49 -27 149 -9 196 14
38 76 100 124 125 59 31 23 34 -39 4 -92 -45 -141 -145 -126 -257 11 -77 38
-124 113 -197 49 -47 60 -62 45 -62 -30 0 -129 107 -163 175 -39 80 -41 167
-5 239 35 68 139 158 193 167 49 8 91 2 130 -18z m-1356 -66 c47 -92 101 -323
83 -357 -6 -11 -15 -20 -20 -20 -12 0 -15 13 -40 160 -17 101 -40 192 -66 255
-7 18 -6 19 10 6 9 -8 24 -28 33 -44z m272 47 c40 -8 39 -19 0 -33 -48 -16
-59 -14 -59 14 0 27 8 29 59 19z m-564 -13 c-11 -10 -156 -51 -182 -51 -33 0
5 22 69 40 70 20 128 25 113 11z m146 -38 c48 -112 108 -293 114 -345 l7 -58
-33 0 -34 0 -17 120 c-11 82 -23 131 -38 155 -20 33 -42 175 -26 175 4 0 16
-21 27 -47z m1176 16 c-46 -18 -67 -18 -67 1 0 10 30 17 80 18 l35 1 -48 -20z
m-1333 -35 c12 -5 16 -20 15 -68 -1 -33 -4 -74 -8 -91 l-7 -30 -28 55 c-16 30
-37 66 -47 79 -26 32 -24 39 14 50 42 12 43 12 61 5z m1305 -15 c-17 -11 -183
-12 -230 -1 -30 6 -27 8 31 12 93 7 217 0 199 -11z m481 -84 c0 -23 -10 -60
-22 -85 -20 -40 -26 -45 -54 -43 -17 2 -48 10 -69 19 l-38 16 41 18 c55 25 90
64 98 109 3 20 8 43 11 51 8 24 32 -38 33 -85z m60 5 c6 -22 8 -62 4 -91 -5
-37 -4 -50 4 -45 6 4 14 33 18 66 10 91 34 75 34 -22 0 -62 11 -55 26 15 l11
52 17 -39 c10 -22 20 -55 23 -73 3 -18 10 -33 14 -33 5 0 9 -9 9 -20 0 -26
-14 -25 -113 6 -45 14 -92 29 -104 33 l-21 6 23 55 c23 55 23 94 0 165 -5 16
-1 14 19 -8 14 -15 30 -45 36 -67z m-2052 53 c2 -8 -6 -13 -22 -13 -17 0 -26
5 -26 16 0 19 41 16 48 -3z m143 -93 c18 -30 41 -63 51 -73 13 -13 18 -33 18
-76 0 -125 -29 -163 -42 -55 -9 74 -51 192 -88 252 -16 26 -26 50 -23 55 7 11
41 -31 84 -103z m648 94 c9 -8 -9 -15 -90 -33 l-84 -19 55 -2 55 -2 -40 -18
c-22 -10 -51 -21 -65 -25 -24 -6 -26 -3 -36 50 -5 31 -9 57 -7 59 4 4 207 -6
212 -10z m289 6 c-5 -15 -121 -110 -134 -110 -6 0 -17 -7 -24 -15 -7 -9 -20
-13 -27 -10 -8 3 -24 -2 -36 -10 -24 -17 -62 -20 -52 -5 3 6 32 28 64 50 36
24 61 49 65 64 5 19 16 27 49 34 57 13 99 14 95 2z m242 -33 c131 -85 144
-169 36 -218 -61 -28 -100 -25 -138 12 -24 22 -27 29 -13 24 11 -3 44 -11 74
-17 62 -13 75 -4 86 62 13 78 -48 140 -138 140 -40 0 -102 -35 -134 -75 -41
-51 -92 -179 -105 -262 -11 -67 -14 -73 -35 -73 -20 0 -23 4 -17 27 21 96 37
144 99 289 19 44 74 104 110 120 58 25 104 18 175 -29z m173 -19 c-7 -66 -10
-73 -29 -57 -8 7 -22 25 -30 41 -8 15 -26 31 -39 34 -46 11 -26 24 39 24 l64
0 -5 -42z m217 -14 c0 -59 30 -116 80 -151 82 -57 77 -52 58 -53 -24 0 -167
136 -174 166 -7 28 14 97 27 89 5 -4 9 -26 9 -51z m-810 37 c0 -5 -52 -48
-115 -96 -63 -47 -117 -90 -120 -95 -3 -5 2 -13 10 -17 14 -8 13 -13 -8 -43
-12 -19 -31 -37 -42 -39 -18 -3 -18 -2 -3 21 14 22 14 30 1 83 -8 33 -11 61
-7 62 5 2 63 32 129 67 115 62 155 76 155 57z m-860 -26 c17 -20 12 -24 -43
-31 -42 -6 -47 -5 -47 13 0 11 3 23 7 26 12 13 71 7 83 -8z m1234 -5 c28 -10
66 -64 66 -92 0 -27 -36 -58 -67 -58 -27 0 -93 43 -93 61 0 5 11 15 25 21 33
15 75 -3 75 -32 0 -12 5 -18 10 -15 15 10 12 46 -7 67 -27 30 -79 24 -118 -15
-43 -43 -55 -90 -55 -214 0 -85 -3 -103 -15 -103 -12 0 -15 18 -15 108 1 59 5
126 9 150 11 55 52 99 111 117 25 7 46 14 47 14 1 1 13 -3 27 -9z m-1196 -63
c25 -20 10 -27 -58 -27 -62 0 -70 2 -70 19 0 13 8 21 23 23 31 6 89 -3 105
-15z m2132 -19 c0 -36 -4 -35 -14 5 -4 16 -2 27 4 27 5 0 10 -14 10 -32z
m-505 -40 c60 -77 137 -122 300 -173 77 -25 155 -47 173 -51 17 -4 32 -13 32
-20 0 -19 -3 -19 -137 21 -168 51 -160 49 -147 36 6 -6 48 -25 95 -41 83 -29
84 -29 39 -29 -31 -1 -71 11 -125 35 -117 52 -125 55 -125 45 0 -5 26 -26 57
-45 45 -28 52 -36 34 -36 -15 0 -58 31 -122 86 -84 73 -101 93 -119 140 -37
100 -18 113 45 32z m-769 -47 c-24 -49 -51 -116 -61 -150 -11 -34 -25 -61 -32
-61 -16 0 -17 -3 6 61 39 112 106 239 126 239 2 0 -15 -40 -39 -89z m538 -6
c-9 -44 -61 -93 -115 -109 -77 -23 -150 3 -189 67 -32 52 -23 59 26 22 37 -29
54 -35 93 -35 74 0 169 69 172 125 0 14 3 11 10 -10 5 -16 6 -43 3 -60z
m-1418 58 l49 -7 -40 -7 c-55 -11 -115 -11 -115 -1 0 23 24 27 106 15z m814
-3 c0 -6 -4 -18 -9 -28 -4 -9 -15 -37 -22 -62 -9 -29 -21 -46 -33 -48 -16 -4
-18 1 -11 50 9 74 14 86 33 91 30 8 42 7 42 -3z m1039 -40 c51 -17 139 -42
194 -54 56 -13 103 -28 105 -34 5 -16 -10 -15 -103 7 -44 10 -98 22 -120 26
-48 8 -179 67 -190 85 -6 9 -4 12 6 8 8 -3 56 -20 108 -38z m-1781 -67 c16
-118 -14 -124 -40 -8 l-14 60 -62 -4 c-39 -2 -62 1 -62 7 0 10 39 17 126 20
l41 2 11 -77z m632 -15 c-16 -104 -35 -132 -90 -136 l-45 -3 47 48 c26 26 50
62 54 78 6 27 4 26 -33 -20 -68 -85 -97 -107 -132 -103 -31 3 -31 3 41 58 39
30 79 69 88 85 9 17 28 36 43 43 15 7 27 18 27 24 0 6 3 9 6 5 3 -3 1 -38 -6
-79z m-716 1 c13 -65 11 -69 -44 -69 l-50 0 0 50 0 50 44 0 c41 0 44 -2 50
-31z m1002 -59 c-1 -69 -3 -80 -18 -80 -21 0 -21 -3 -7 79 9 60 15 81 23 81 2
0 3 -36 2 -80z m1014 35 c111 -25 146 -36 148 -49 4 -18 5 -18 -93 6 -76 18
-225 70 -232 80 -4 8 0 9 13 4 10 -5 84 -23 164 -41z m-1130 -37 c-9 -40 -22
-74 -28 -76 -17 -5 -15 10 6 65 11 26 22 56 25 66 14 40 13 12 -3 -55z m560
63 c0 -5 -11 -23 -25 -39 -29 -34 -31 -44 -10 -36 23 9 18 -10 -10 -40 -22
-24 -30 -26 -104 -26 -44 0 -83 5 -86 10 -4 6 15 10 49 10 59 0 106 13 106 30
0 7 -6 8 -19 0 -27 -14 -131 -12 -160 3 -46 23 -36 38 13 21 64 -22 145 -5
195 42 37 34 51 41 51 25z m-685 -89 c-8 -26 -15 -48 -15 -49 0 -2 -5 -3 -11
-3 -14 0 -4 77 13 97 20 25 27 2 13 -45z m755 28 c0 -12 7 -34 15 -50 14 -27
14 -30 0 -30 -16 0 -45 55 -45 85 0 8 7 15 15 15 8 0 15 -9 15 -20z m-999 -3
c-6 -8 -34 -27 -63 -42 -51 -28 -59 -29 -217 -33 -159 -4 -271 8 -271 30 0 4
87 8 193 8 187 0 263 10 313 38 11 6 27 12 38 12 14 0 16 -3 7 -13z m583 -49
c4 -17 2 -28 -4 -28 -5 0 -10 14 -10 32 0 36 4 35 14 -4z m500 -13 c19 -15 19
-15 -1 -15 -11 0 -26 7 -33 15 -17 20 7 20 34 0z"/>
<path d="M210 2370 c0 -5 10 -10 23 -10 18 0 19 2 7 10 -19 13 -30 13 -30 0z"/>
<path d="M340 2309 c88 -57 133 -80 139 -73 8 8 -21 27 -109 74 -100 51 -113
51 -30 -1z"/>
<path d="M2172 2363 c-10 -16 -45 -79 -78 -141 -32 -62 -84 -147 -116 -189
-32 -42 -55 -79 -52 -82 13 -13 87 91 165 229 45 80 91 160 101 178 24 39 7
43 -20 5z"/>
<path d="M2232 2169 c-51 -78 -91 -144 -87 -147 6 -6 19 9 74 88 34 49 116
200 108 200 -1 0 -44 -64 -95 -141z"/>
<path d="M1048 1563 c18 -2 45 -2 60 0 15 2 0 4 -33 4 -33 0 -45 -2 -27 -4z"/>
<path d="M985 1520 c-4 -6 7 -10 24 -10 17 0 31 5 31 10 0 6 -11 10 -24 10
-14 0 -28 -4 -31 -10z"/>
<path d="M2158 1476 c18 -20 32 -44 32 -52 0 -31 -33 -85 -61 -100 -27 -13
-29 -13 -29 5 0 10 7 24 15 31 21 17 19 73 -3 93 -27 25 -103 22 -136 -4 -37
-29 -32 -45 6 -18 56 40 128 25 128 -27 0 -26 -3 -29 -47 -39 -29 -6 -33 -4
-33 14 0 11 -4 22 -9 26 -17 10 -23 -15 -11 -51 16 -48 7 -52 -31 -15 -17 18
-34 29 -38 26 -3 -4 8 -19 26 -35 33 -29 92 -45 148 -38 36 4 95 77 95 117 0
35 -39 95 -65 100 -15 3 -13 -4 13 -33z"/>
<path d="M507 1403 c-12 -20 34 -129 47 -112 1 2 -7 31 -19 63 -12 33 -25 55
-28 49z"/>
<path d="M945 1320 c-4 -6 3 -10 14 -10 25 0 27 6 6 13 -8 4 -17 2 -20 -3z"/>
<path d="M1395 1170 c-18 -8 -17 -9 7 -9 15 -1 30 4 33 9 7 12 -12 12 -40 0z"/>
<path d="M1780 1252 c0 -5 7 -16 16 -23 14 -12 16 -11 13 5 -4 20 -29 35 -29
18z"/>
<path d="M1736 1231 c-3 -5 1 -14 9 -21 12 -10 15 -10 15 3 0 19 -16 31 -24
18z"/>
<path d="M1610 1176 c0 -8 5 -18 10 -21 6 -3 10 1 10 9 0 8 -4 18 -10 21 -5 3
-10 -1 -10 -9z"/>
<path d="M1550 1146 c0 -9 5 -16 10 -16 6 0 10 4 10 9 0 6 -4 13 -10 16 -5 3
-10 -1 -10 -9z"/>
<path d="M2220 1082 c0 -5 21 -14 47 -18 42 -8 50 -14 72 -52 l23 -44 -38 -39
c-35 -36 -36 -39 -16 -39 13 0 34 11 47 25 42 41 29 122 -24 149 -38 20 -111
32 -111 18z"/>
<path d="M2125 1010 c-18 -34 -19 -44 -5 -35 16 10 42 65 31 65 -6 0 -17 -13
-26 -30z"/>
<path d="M2275 970 c-3 -5 -1 -10 4 -10 6 0 11 5 11 10 0 6 -2 10 -4 10 -3 0
-8 -4 -11 -10z"/>
<path d="M1895 910 c-8 -13 45 -13 65 0 11 7 6 10 -22 10 -20 0 -40 -4 -43
-10z"/>
<path d="M415 1016 c-69 -22 -119 -45 -101 -46 22 0 196 54 196 62 0 12 -19 9
-95 -16z"/>
<path d="M1346 671 c-5 -8 13 -11 62 -11 38 0 98 -2 133 -5 50 -4 59 -3 40 5
-37 16 -227 25 -235 11z"/>
<path d="M1251 639 c-13 -5 -21 -12 -18 -15 8 -8 65 5 72 17 8 12 -23 11 -54
-2z"/>
<path d="M2044 648 c48 -67 45 -112 -11 -138 -39 -18 -42 -30 -9 -30 34 0 86
46 86 76 0 37 -26 91 -48 103 -31 17 -36 13 -18 -11z"/>
<path d="M1955 310 c3 -5 16 -15 28 -21 22 -12 22 -12 3 10 -19 21 -43 30 -31
11z"/>
<path d="M212 269 c1 -12 9 -24 16 -27 9 -3 13 3 10 19 -1 12 -9 24 -16 27 -9
3 -13 -3 -10 -19z"/>
</g>
</svg>
