<svg xmlns="http://www.w3.org/2000/svg" viewBox="0 0 612 822" width="612" height="822">
<rect width="100%" height="100%" fill="#fafafa"/>
<text x="306.0" y="34" font-family="Helvetica, sans-serif" font-size="20" font-weight="600" text-anchor="middle" fill="#222">OHM Logo Concepts v0.2</text>
<rect x="20" y="70" width="128" height="128" fill="#fff" stroke="#ddd" stroke-width="0.5"/>
<svg x="20" y="70" width="128" height="128" viewBox="0 0 100 100" preserveAspectRatio="xMidYMid meet"><rect width="100" height="100" fill="#fafafa"/>
<path d="M 10 10 L 90 10 L 90 25 Q 90 40 65 50 Q 90 60 90 75 L 90 90 L 10 90 L 10 75 Q 10 60 35 50 Q 10 40 10 25 Z" fill="#1a4a52"/>
<circle cx="50" cy="30" r="14" fill="#c98a3a"/>
<circle cx="50" cy="70" r="14" fill="#c98a3a"/></svg>
<text x="84.0" y="220" font-family="Helvetica, sans-serif" font-size="11" text-anchor="middle" fill="#333">1. Hourglass globe</text>
<rect x="168" y="70" width="128" height="128" fill="#fff" stroke="#ddd" stroke-width="0.5"/>
<svg x="168" y="70" width="128" height="128" viewBox="0 0 100 100" preserveAspectRatio="xMidYMid meet"><rect width="100" height="100" fill="#fafafa"/>
<path d="M 10 10 L 90 10 L 90 25 Q 90 40 65 50 Q 90 60 90 75 L 90 90 L 10 90 L 10 75 Q 10 60 35 50 Q 10 40 10 25 Z" fill="#2a3a5e"/>
<circle cx="50" cy="30" r="14" fill="#3878a0"/>
<circle cx="50" cy="30" r="7" fill="#7a9a44"/>
<circle cx="50" cy="70" r="14" fill="#3878a0"/>
<circle cx="50" cy="70" r="7" fill="#7a9a44"/></svg>
<text x="232.0" y="220" font-family="Helvetica, sans-serif" font-size="11" text-anchor="middle" fill="#333">2. Hourglass + water/land</text>
<rect x="316" y="70" width="128" height="128" fill="#fff" stroke="#ddd" stroke-width="0.5"/>
<svg x="316" y="70" width="128" height="128" viewBox="0 0 100 100" preserveAspectRatio="xMidYMid meet"><rect width="100" height="100" fill="#fafafa"/>
<rect x="5" y="85" width="90" height="3" fill="#2d4a36"/>
<rect x="51.6" y="20" width="24" height="65" fill="#2d4a36"/>
<rect x="58.6" y="14" width="10" height="6" fill="#2d4a36"/>
<rect x="62.1" y="6" width="3" height="8" fill="#2d4a36"/>
<polygon points="14,85 43.7,55.3 73.4,85" fill="#b8923a"/></svg>
<text x="380.0" y="220" font-family="Helvetica, sans-serif" font-size="11" text-anchor="middle" fill="#333">3. Pyramid + tower</text>
<rect x="464" y="70" width="128" height="128" fill="#fff" stroke="#ddd" stroke-width="0.5"/>
<svg x="464" y="70" width="128" height="128" viewBox="0 0 100 100" preserveAspectRatio="xMidYMid meet"><rect width="100" height="100" fill="#fafafa"/>
<path d="M 8 80 A 42 42 0 0 1 92 80 Z" fill="#6b2737"/>
<polygon points="50,80 50,12 76,80" fill="#d6b88a"/></svg>
<text x="528.0" y="220" font-family="Helvetica, sans-serif" font-size="11" text-anchor="middle" fill="#333">4. Sundial</text>
<rect x="20" y="258" width="128" height="128" fill="#fff" stroke="#ddd" stroke-width="0.5"/>
<svg x="20" y="258" width="128" height="128" viewBox="0 0 100 100" preserveAspectRatio="xMidYMid meet"><svg viewBox="-15 0 130 100">
<rect x="-15" y="0" width="130" height="100" fill="#fafafa"/>
<polygon points="10,20 30,15 50,20 70,15 90,20 90,75 70,80 50,75 30,80 10,75" fill="#4a5560"/>
<rect x="29" y="19" width="2" height="57" fill="#f4ead5"/>
<rect x="49" y="24" width="2" height="47" fill="#f4ead5"/>
<rect x="69" y="19" width="2" height="57" fill="#f4ead5"/>
<rect x="0" y="46" width="100" height="6" fill="#b88a3c"/>
<polygon points="100,42 110,49 100,56" fill="#b88a3c"/>
<polygon points="0,42 -10,49 0,56" fill="#b88a3c"/>
</svg></svg>
<text x="84.0" y="408" font-family="Helvetica, sans-serif" font-size="11" text-anchor="middle" fill="#333">5. Folded map</text>
<rect x="168" y="258" width="128" height="128" fill="#fff" stroke="#ddd" stroke-width="0.5"/>
<svg x="168" y="258" width="128" height="128" viewBox="0 0 100 100" preserveAspectRatio="xMidYMid meet"><rect width="100" height="100" fill="#fafafa"/>
<polygon points="10,20 30,15 50,20 70,15 90,20 90,75 70,80 50,75 30,80 10,75" fill="#7a9a44"/>
<circle cx="62" cy="48" r="22" fill="#f4ead5" stroke="#1a4a52" stroke-width="3"/>
<rect x="54" y="36" width="4" height="24" fill="#1a4a52"/>
<rect x="66" y="36" width="4" height="24" fill="#1a4a52"/>
<rect x="54" y="46" width="16" height="4" fill="#1a4a52"/></svg>
<text x="232.0" y="408" font-family="Helvetica, sans-serif" font-size="11" text-anchor="middle" fill="#333">6. Simplification</text>
<rect x="316" y="258" width="128" height="128" fill="#fff" stroke="#ddd" stroke-width="0.5"/>
<svg x="316" y="258" width="128" height="128" viewBox="0 0 100 100" preserveAspectRatio="xMidYMid meet"><rect width="100" height="100" fill="#fafafa"/>
<polygon points="10,20 30,15 50,20 70,15 90,20 90,75 70,80 50,75 30,80 10,75" fill="#1a4a52"/>
<circle cx="50" cy="48" r="20" fill="#f4ead5"/>
<rect x="42" y="37" width="4" height="22" fill="#1a4a52"/>
<rect x="54" y="37" width="4" height="22" fill="#1a4a52"/>
<rect x="42" y="46" width="16" height="4" fill="#1a4a52"/></svg>
<text x="380.0" y="408" font-family="Helvetica, sans-serif" font-size="11" text-anchor="middle" fill="#333">7. Negative space</text>
<rect x="464" y="258" width="128" height="128" fill="#fff" stroke="#ddd" stroke-width="0.5"/>
<svg x="464" y="258" width="128" height="128" viewBox="0 0 100 100" preserveAspectRatio="xMidYMid meet"><rect width="100" height="100" fill="#fafafa"/>
<defs>
  <mask id="m8">
    <rect width="100" height="100" fill="white"/>
    <path d="M 38 28 L 62 28 L 62 36 Q 62 44 53 50 Q 62 56 62 64 L 62 72 L 38 72 L 38 64 Q 38 56 47 50 Q 38 44 38 36 Z" fill="black"/>
  </mask>
</defs>
<polygon points="10,20 30,15 50,20 70,15 90,20 90,75 70,80 50,75 30,80 10,75" fill="#1a4a52" mask="url(#m8)"/></svg>
<text x="528.0" y="408" font-family="Helvetica, sans-serif" font-size="11" text-anchor="middle" fill="#333">8. Map + hourglass cutout</text>
<rect x="20" y="446" width="128" height="128" fill="#fff" stroke="#ddd" stroke-width="0.5"/>
<svg x="20" y="446" width="128" height="128" viewBox="0 0 100 100" preserveAspectRatio="xMidYMid meet"><rect width="100" height="100" fill="#fafafa"/>
<defs>
  <mask id="m9">
    <rect width="100" height="100" fill="white"/>
    <path d="M 30 65 A 20 20 0 0 1 70 65 Z" fill="black"/>
  </mask>
</defs>
<polygon points="10,20 30,15 50,20 70,15 90,20 90,75 70,80 50,75 30,80 10,75" fill="#1a4a52" mask="url(#m9)"/>
<polygon points="50,65 50,30 65,65" fill="#c8d0d0"/></svg>
<text x="84.0" y="596" font-family="Helvetica, sans-serif" font-size="11" text-anchor="middle" fill="#333">9. Map + sundial cutout</text>
<rect x="168" y="446" width="128" height="128" fill="#fff" stroke="#ddd" stroke-width="0.5"/>
<svg x="168" y="446" width="128" height="128" viewBox="0 0 100 100" preserveAspectRatio="xMidYMid meet"><rect width="100" height="100" fill="#fafafa"/>
<svg viewBox="0 0 200 200" width="100" height="100" x="0" y="0">
<defs><clipPath id="clip10"><rect x="0" y="0" width="200" height="200"/></clipPath></defs>
<g clip-path="url(#clip10)">
<polygon points="86,17.7 134.45,5 182.9,25.3 231.35,5 279.8,17.7 279.8,182.3 231.35,195 182.9,175 134.45,195 86,182.3" fill="#6b9938"/>
<circle cx="5" cy="100" r="95" fill="#4f7aaa"/>
<path d="M 50 30 L 150 30 L 150 50 Q 150 70 115 100 Q 150 130 150 150 L 150 170 L 50 170 L 50 150 Q 50 130 85 100 Q 50 70 50 50 Z" fill="#e07a00"/>
</g>
</svg></svg>
<text x="232.0" y="596" font-family="Helvetica, sans-serif" font-size="11" text-anchor="middle" fill="#333">10. OHM concept</text>
<rect x="316" y="446" width="128" height="128" fill="#fff" stroke="#ddd" stroke-width="0.5"/>
<svg x="316" y="446" width="128" height="128" viewBox="0 0 100 100" preserveAspectRatio="xMidYMid meet"><rect width="100" height="100" fill="#fafafa"/>
<svg viewBox="0 0 200 200" width="100" height="100" x="0" y="0">
<defs><clipPath id="clip11"><rect x="0" y="0" width="200" height="200"/></clipPath></defs>
<g clip-path="url(#clip11)">
<polygon points="86,17.7 134.45,5 182.9,25.3 231.35,5 279.8,17.7 279.8,182.3 231.35,195 182.9,175 134.45,195 86,182.3" fill="#6b9938"/>
<circle cx="5" cy="100" r="95" fill="#4f7aaa"/>
<path d="M 50 30 L 150 30 L 150 50 Q 150 70 115 100 Q 150 130 150 150 L 150 170 L 50 170 L 50 150 Q 50 130 85 100 Q 50 70 50 50 Z" fill="#fafafa"/>
<path d="M 54 34 L 146 34 L 146 49 Q 146 68 111 97 L 111 103 Q 146 132 146 151 L 146 166 L 54 166 L 54 151 Q 54 132 89 103 L 89 97 Q 54 68 54 49 Z" fill="#e07a00"/>
</g>
</svg></svg>
<text x="380.0" y="596" font-family="Helvetica, sans-serif" font-size="11" text-anchor="middle" fill="#333">11. OHM with border</text>
<rect x="464" y="446" width="128" height="128" fill="#fff" stroke="#ddd" stroke-width="0.5"/>
<svg x="464" y="446" width="128" height="128" viewBox="0 0 100 100" preserveAspectRatio="xMidYMid meet"><rect width="100" height="100" fill="#f4ead5"/>
<rect x="0" y="0" width="12" height="30" fill="#6b9938"/>
<rect x="0" y="0" width="34" height="12" fill="#6b9938"/>
<rect x="22" y="0" width="12" height="100" fill="#6b9938"/>
<rect x="22" y="88" width="34" height="12" fill="#6b9938"/>
<rect x="44" y="0" width="12" height="100" fill="#6b9938"/>
<rect x="44" y="0" width="34" height="12" fill="#6b9938"/>
<rect x="66" y="0" width="12" height="100" fill="#6b9938"/>
<rect x="66" y="88" width="34" height="12" fill="#6b9938"/>
<rect x="88" y="50" width="12" height="50" fill="#6b9938"/></svg>
<text x="528.0" y="596" font-family="Helvetica, sans-serif" font-size="11" text-anchor="middle" fill="#333">13. Square monster</text>
<rect x="20" y="634" width="128" height="128" fill="#fff" stroke="#ddd" stroke-width="0.5"/>
<svg x="20" y="634" width="128" height="128" viewBox="0 0 100 100" preserveAspectRatio="xMidYMid meet"><svg viewBox="0 0 80 80" preserveAspectRatio="xMidYMid meet">
<rect width="80" height="80" fill="#f3ead5"/>
<path d="M8,24v-8.58c0-4.1,3.32-7.42,7.42-7.42h1.16c4.1,0,7.42,3.32,7.42,7.42v49.16c0,4.1,3.32,7.42,7.42,7.42h1.16c4.1,0,7.42-3.32,7.42-7.42V15.42c0-4.1,3.32-7.42,7.42-7.42h1.16c4.1,0,7.42,3.32,7.42,7.42v49.16c0,4.1,3.32,7.42,7.42,7.42h1.16c4.1,0,7.42-3.32,7.42-7.42v-24.58" fill="none" stroke="#6b9940" stroke-linecap="round" stroke-linejoin="round" stroke-width="8"/>
</svg></svg>
<text x="84.0" y="784" font-family="Helvetica, sans-serif" font-size="11" text-anchor="middle" fill="#333">14. Curved monster</text>
<rect x="168" y="634" width="128" height="128" fill="#fff" stroke="#ddd" stroke-width="0.5"/>
<svg x="168" y="634" width="128" height="128" viewBox="0 0 100 100" preserveAspectRatio="xMidYMid meet"><svg viewBox="0 0 80 80" preserveAspectRatio="xMidYMid meet">
<rect width="80" height="80" fill="#f3ead5"/>
<rect y="42" width="80" height="38" fill="#aac2e5"/>
<path d="M8,24v-8.58c0-4.1,3.32-7.42,7.42-7.42h1.16c4.1,0,7.42,3.32,7.42,7.42v49.16c0,4.1,3.32,7.42,7.42,7.42h1.16c4.1,0,7.42-3.32,7.42-7.42V15.42c0-4.1,3.32-7.42,7.42-7.42h1.16c4.1,0,7.42,3.32,7.42,7.42v49.16c0,4.1,3.32,7.42,7.42,7.42h1.16c4.1,0,7.42-3.32,7.42-7.42v-24.58" fill="none" stroke="#6b9940" stroke-linecap="round" stroke-linejoin="round" stroke-width="8"/>
</svg></svg>
<text x="232.0" y="784" font-family="Helvetica, sans-serif" font-size="11" text-anchor="middle" fill="#333">15. Curved monster + water</text>
</svg>