<?xml version="1.0" encoding="UTF-8"?>
<svg id="Layer_1" xmlns="http://www.w3.org/2000/svg" version="1.1" viewBox="0 0 128 128">
  <!-- Generator: Adobe Illustrator 30.3.0, SVG Export Plug-In . SVG Version: 2.1.3 Build 182)  -->
  <defs>
    <style>
      .st0, .st1, .st2, .st3, .st4 {
        fill: none;
      }

      .st1 {
        stroke-width: 3px;
      }

      .st1, .st5, .st2, .st3, .st4, .st6, .st7 {
        stroke-miterlimit: 10;
      }

      .st1, .st2, .st3 {
        stroke: #58595b;
      }

      .st8 {
        fill: #6b9940;
        stroke: #6b9940;
      }

      .st8, .st9 {
        stroke-linejoin: round;
      }

      .st5 {
        fill: #fbb040;
        stroke: #fbb040;
      }

      .st2, .st3 {
        stroke-width: 5px;
      }

      .st3 {
        stroke-linecap: round;
      }

      .st4 {
        stroke: #1e6e37;
        stroke-width: 2px;
      }

      .st6 {
        stroke: #27aae1;
      }

      .st6, .st9, .st10 {
        fill: #27aae1;
      }

      .st7 {
        fill: #f7941d;
        stroke: #f7941d;
      }

      .st9, .st10 {
        stroke: #39b54a;
      }

      .st10 {
        stroke-linejoin: bevel;
      }
    </style>
  </defs>
  <path class="st2" d="M118,63.99c-.36,18.3-10.39,35.85-27.72,45-25.4,13.41-56.85,3.69-70.26-21.7-3.93-7.44-5.87-15.41-6.02-23.28"/>
  <ellipse class="st0" cx="66" cy="62" rx="44" ry="12"/>
  <g>
    <path class="st0" d="M66,20c-19.99,0-36.7,13.97-40.95,32.67,9.91-3.19,24.46-5.17,40.95-5.17s31.03,1.98,40.95,5.17c-4.24-18.7-20.96-32.67-40.95-32.67Z"/>
    <path class="st0" d="M25.61,73.51c5.01,17.6,21.19,30.49,40.39,30.49s35.39-12.89,40.39-30.49c-9.9,3.08-24.22,4.99-40.39,4.99s-30.49-1.91-40.39-4.99Z"/>
    <path class="st0" d="M24.17,58.27c-.11,1.23-.17,2.47-.17,3.73s.07,2.5.17,3.73c5.75,4.8,22.3,8.27,41.83,8.27s36.08-3.47,41.83-8.27c.11-1.23.17-2.47.17-3.73s-.07-2.5-.17-3.73c-5.75-4.8-22.3-8.27-41.83-8.27s-36.08,3.47-41.83,8.27Z"/>
    <path class="st7" d="M24.17,65.73c.24,2.67.72,5.27,1.44,7.78,9.9,3.08,24.22,4.99,40.39,4.99s30.49-1.91,40.39-4.99c.71-2.51,1.2-5.11,1.44-7.78-5.75,4.8-22.3,8.27-41.83,8.27s-36.08-3.47-41.83-8.27Z"/>
    <path class="st7" d="M25.05,52.67c-.41,1.83-.71,3.69-.88,5.6,5.75-4.8,22.3-8.27,41.83-8.27s36.08,3.47,41.83,8.27c-.17-1.91-.46-3.78-.88-5.6-9.91-3.19-24.46-5.17-40.95-5.17s-31.03,1.98-40.95,5.17Z"/>
    <path class="st7" d="M18.47,55.31c-4.44,2.25-6.97,4.87-6.97,7.69s2.66,5.58,7.33,7.87c-.54-2.88-.83-5.84-.83-8.87,0-2.27.17-4.5.47-6.69Z"/>
    <path class="st7" d="M120.5,63c0-2.82-2.53-5.44-6.97-7.69.31,2.19.47,4.42.47,6.69,0,3.03-.29,5.99-.83,8.87,4.67-2.29,7.33-4.98,7.33-7.87Z"/>
    <path class="st5" d="M107.83,65.73c1.4-1.17,2.17-2.42,2.17-3.73s-.77-2.55-2.17-3.73c.11,1.23.17,2.47.17,3.73s-.07,2.5-.17,3.73Z"/>
    <path class="st5" d="M24.17,58.27c-1.4,1.17-2.17,2.42-2.17,3.73s.77,2.55,2.17,3.73c-.11-1.23-.17-2.47-.17-3.73s.07-2.5.17-3.73Z"/>
    <path class="st5" d="M66,104c-19.2,0-35.39-12.89-40.39-30.49-2.58-.8-4.85-1.69-6.78-2.64,4.16,22.27,23.69,39.13,47.17,39.13s43.01-16.86,47.17-39.13c-1.93.95-4.2,1.83-6.78,2.64-5.01,17.6-21.19,30.49-40.39,30.49Z"/>
    <path class="st5" d="M66,20c19.99,0,36.7,13.97,40.95,32.67,2.51.81,4.71,1.69,6.58,2.64-3.26-23.34-23.29-41.31-47.53-41.31S21.73,31.97,18.47,55.31c1.87-.95,4.07-1.83,6.58-2.64,4.24-18.7,20.96-32.67,40.95-32.67Z"/>
    <path class="st5" d="M24.17,65.73c-1.4-1.17-2.17-2.42-2.17-3.73s.77-2.55,2.17-3.73c.17-1.91.46-3.78.88-5.6-2.51.81-4.71,1.69-6.58,2.64-.31,2.19-.47,4.42-.47,6.69,0,3.03.29,5.99.83,8.87,1.93.95,4.2,1.83,6.78,2.64-.71-2.51-1.2-5.11-1.44-7.78Z"/>
    <path class="st5" d="M113.53,55.31c-1.87-.95-4.07-1.83-6.58-2.64.41,1.83.71,3.69.88,5.6,1.4,1.17,2.17,2.42,2.17,3.73s-.77,2.55-2.17,3.73c-.24,2.67-.72,5.27-1.44,7.78,2.58-.8,4.85-1.69,6.78-2.64.54-2.88.83-5.84.83-8.87,0-2.27-.17-4.5-.47-6.69Z"/>
  </g>
  <line class="st1" x1="30" y1="34" x2="100" y2="90"/>
  <circle class="st6" cx="66" cy="62" r="6"/>
  <g>
    <path class="st0" d="M75.61,24c.13.14.26.27.38.42.18-.07.35-.11.52-.17l-.51-.26h-.39Z"/>
    <path class="st0" d="M55.63,59.31c-4.91,18.07-4.74,34.43-.1,40.35,7-2.72,15.44-16.77,20.36-34.88,4.91-18.07,4.74-34.43.1-40.35-7,2.72-15.44,16.77-20.36,34.88Z"/>
    <path class="st0" d="M55.84,100c-.1-.12-.21-.22-.31-.35-.38.15-.75.25-1.13.33l1.43.02Z"/>
    <path class="st10" d="M72.92,22.25s-.03,0-.05-.01l.09.03s-.03-.01-.04-.02Z"/>
    <path class="st9" d="M72,22v.1c.29.02.59.06.87.14l-.87-.24Z"/>
    <path class="st8" d="M79.69,24.12l-6.72-1.85-.09-.03c-.29-.07-.58-.12-.87-.14-7.4-.58-17.55,14.74-23.13,35.33-5.82,21.46-4.5,40.49,2.97,42.52l5.7,1.43c.34.18.69.34,1.06.44.45.12.92.18,1.39.17h.01s0,0,0,0c7.36-.09,17.19-15.21,22.66-35.36,5.82-21.46,4.5-40.49-2.97-42.52ZM75.89,64.77c-4.92,18.12-13.36,32.17-20.36,34.88.1.13.21.23.31.35l-1.43-.02c.37-.08.75-.18,1.13-.33-4.63-5.92-4.8-22.27.1-40.35,4.92-18.12,13.36-32.17,20.36-34.88-.12-.15-.25-.28-.38-.42h.39l.51.26c-.17.05-.35.1-.52.17,4.63,5.92,4.8,22.27-.1,40.35Z"/>
  </g>
  <ellipse class="st4" cx="65.06" cy="63.05" rx="9.89" ry="40" transform="translate(-25.02 72.73) rotate(-50.23)"/>
  <line class="st3" x1="50" y1="122" x2="82" y2="122"/>
  <line class="st2" x1="62" y1="118" x2="70" y2="118"/>
</svg>