<?xml version="1.0" encoding="UTF-8"?>
<svg id="Layer_1" xmlns="http://www.w3.org/2000/svg" version="1.1" viewBox="0 0 128 128">
  <!-- Generator: Adobe Illustrator 30.3.0, SVG Export Plug-In . SVG Version: 2.1.3 Build 182)  -->
  <defs>
    <style>
      .st0 {
        display: none;
        fill: #1b4b53;
      }

      .st1 {
        fill: none;
        stroke: #1e6e37;
        stroke-linejoin: round;
        stroke-width: 3px;
      }
    </style>
  </defs>
  <path class="st0" d="M10.38,6.19l24.04,9.16,24.04-9.16c.63-.24,1.33-.25,1.96-.03l.08.03,24.05,9.22,23.95-9.22c1.45-.56,3.08.15,3.67,1.58l.03.06,9.62,25.1c.25.66.25,1.39,0,2.05l-9.22,24.07,9.22,23.94c.24.63.25,1.32.04,1.96l-.03.08-9.55,25.29c-.29.77-.89,1.37-1.66,1.66l-25.07,9.55c-.66.25-1.38.25-2.04,0l-24.05-9.17-24.05,9.17c-.64.24-1.34.25-1.98.02l-.08-.03-24.58-9.58h-.06c-1.36-.36-2.47-1.68-2.16-3.28h0s0-.01,0-.01c.04-.26.12-.52.24-.76l.02-.04,9.05-23.78-9.16-24.05c-.24-.63-.25-1.32-.03-1.96l.03-.08,9.16-24.05L6.69,9.88c-.88-2.31,1.38-4.57,3.69-3.69Z"/>
  <polygon class="st1" points="10.62 111.43 16.55 28.39 40.28 28.39 46.21 111.43 10.62 111.43"/>
  <polyline class="st1" points="12.6 20.48 14.57 28.39 42.25 28.39 44.23 20.48 44.23 12.57 38.3 12.57 38.3 16.53 32.37 16.53 32.37 12.57 24.46 12.57 24.46 16.53 18.53 16.53 18.53 12.57 12.6 12.57 12.6 20.48"/>
  <polygon class="st1" points="81.79 111.43 87.72 28.39 111.45 28.39 117.38 111.43 81.79 111.43"/>
  <polyline class="st1" points="83.77 20.48 85.75 28.39 113.43 28.39 115.4 20.48 115.4 12.57 109.47 12.57 109.47 16.53 103.54 16.53 103.54 12.57 95.63 12.57 95.63 16.53 89.7 16.53 89.7 12.57 83.77 12.57 83.77 20.48"/>
  <path class="st1" d="M68.39,55.1"/>
  <polygon class="st1" points="84.19 77.82 43.81 77.82 42.11 54.09 49.17 54.09 49.17 60.02 55.1 60.02 55.1 54.09 61.03 54.09 61.03 60.02 66.97 60.02 66.97 54.09 72.9 54.09 72.9 60.02 78.83 60.02 78.83 54.09 85.89 54.09 84.19 77.82"/>
</svg>