<?xml version="1.0" encoding="UTF-8"?>
<svg id="Layer_1" xmlns="http://www.w3.org/2000/svg" version="1.1" viewBox="0 0 80 80">
  <!-- Generator: Adobe Illustrator 30.3.0, SVG Export Plug-In . SVG Version: 2.1.3 Build 182)  -->
  <defs>
    <style>
      .st0 {
        fill: none;
        stroke: #6b9940;
        stroke-linecap: round;
        stroke-linejoin: round;
        stroke-width: 8px;
      }

      .st1 {
        fill: #f3ead5;
      }
    </style>
  </defs>
  <rect class="st1" width="80" height="80"/>
  <path class="st0" d="M8,24v-8.58c0-4.1,3.32-7.42,7.42-7.42h1.16c4.1,0,7.42,3.32,7.42,7.42v49.16c0,4.1,3.32,7.42,7.42,7.42h1.16c4.1,0,7.42-3.32,7.42-7.42V15.42c0-4.1,3.32-7.42,7.42-7.42h1.16c4.1,0,7.42,3.32,7.42,7.42v49.16c0,4.1,3.32,7.42,7.42,7.42h1.16c4.1,0,7.42-3.32,7.42-7.42v-24.58"/>
</svg>