<?xml version="1.0" encoding="UTF-8"?>
<svg id="Layer_1" xmlns="http://www.w3.org/2000/svg" version="1.1" viewBox="0 0 128 128">
  <!-- Generator: Adobe Illustrator 30.3.0, SVG Export Plug-In . SVG Version: 2.1.3 Build 182)  -->
  <defs>
    <style>
      .st0 {
        fill: #1b4b53;
      }

      .st1 {
        fill: #f3ead5;
        stroke: #f3ead5;
      }

      .st1, .st2 {
        stroke-linejoin: round;
      }

      .st2 {
        fill: #fff;
        stroke: #231f20;
        stroke-width: 3px;
      }
    </style>
  </defs>
  <path class="st0" d="M10.38,6.19l24.04,9.16,24.04-9.16c.63-.24,1.33-.25,1.96-.03l.08.03,24.05,9.22,23.95-9.22c1.45-.56,3.08.15,3.67,1.58l.03.06,9.62,25.1c.25.66.25,1.39,0,2.05l-9.22,24.07,9.22,23.94c.24.63.25,1.32.04,1.96l-.03.08-9.55,25.29c-.29.77-.89,1.37-1.66,1.66l-25.07,9.55c-.66.25-1.38.25-2.04,0l-24.05-9.17-24.05,9.17c-.64.24-1.34.25-1.98.02l-.08-.03-24.58-9.58h-.06c-1.36-.36-2.47-1.68-2.16-3.28h0s0-.01,0-.01c.04-.26.12-.52.24-.76l.02-.04,9.05-23.78-9.16-24.05c-.24-.63-.25-1.32-.03-1.96l.03-.08,9.16-24.05L6.69,9.88c-.88-2.31,1.38-4.57,3.69-3.69Z"/>
  <polygon class="st1" points="29.98 96.5 33.76 43.58 48.88 43.58 52.66 96.5 29.98 96.5"/>
  <polyline class="st1" points="31.24 38.54 32.5 43.58 50.14 43.58 51.4 38.54 51.4 33.5 47.62 33.5 47.62 36.02 43.84 36.02 43.84 33.5 38.8 33.5 38.8 36.02 35.02 36.02 35.02 33.5 31.24 33.5 31.24 38.54"/>
  <polygon class="st1" points="75.34 96.5 79.12 43.58 94.24 43.58 98.02 96.5 75.34 96.5"/>
  <polyline class="st1" points="76.6 38.54 77.86 43.58 95.5 43.58 96.76 38.54 96.76 33.5 92.98 33.5 92.98 36.02 89.2 36.02 89.2 33.5 84.16 33.5 84.16 36.02 80.38 36.02 80.38 33.5 76.6 33.5 76.6 38.54"/>
  <path class="st2" d="M66.8,60.6"/>
  <polygon class="st1" points="76.87 75.08 51.13 75.08 50.05 59.96 54.55 59.96 54.55 63.74 58.33 63.74 58.33 59.96 62.11 59.96 62.11 63.74 65.89 63.74 65.89 59.96 69.67 59.96 69.67 63.74 73.45 63.74 73.45 59.96 77.95 59.96 76.87 75.08"/>
</svg>