<svg xmlns="http://www.w3.org/2000/svg" width="128" height="128" viewBox="0 0 128 128">
  <path
    d="M 2.00,2.00 L 2.00,6.00 L 6.00,6.00 L 6.00,2.00 L 10.00,2.00 L 14.00,2.00 L 14.00,6.00 L 10.00,6.00 L 10.00,10.00 L 14.00,10.00 L 14.00,14.00 L 10.00,14.00 L 6.00,14.00 L 6.00,10.00 L 2.00,10.00 L 2.00,14.00 L 2.00,18.00 L 6.00,18.00 L 6.00,22.00 L 2.00,22.00 L 2.00,26.00 L 2.00,30.00 L 6.00,30.00 L 6.00,26.00 L 10.00,26.00 L 10.00,30.00 L 14.00,30.00 L 14.00,26.00 L 14.00,22.00 L 10.00,22.00 L 10.00,18.00 L 14.00,18.00 L 18.00,18.00 L 22.00,18.00 L 22.00,22.00 L 18.00,22.00 L 18.00,26.00 L 18.00,30.00 L 22.00,30.00 L 22.00,26.00 L 26.00,26.00 L 26.00,30.00 L 30.00,30.00 L 30.00,26.00 L 30.00,22.00 L 26.00,22.00 L 26.00,18.00 L 30.00,18.00 L 30.00,14.00 L 30.00,10.00 L 26.00,10.00 L 26.00,14.00 L 22.00,14.00 L 18.00,14.00 L 18.00,10.00 L 22.00,10.00 L 22.00,6.00 L 18.00,6.00 L 18.00,2.00 L 22.00,2.00 L 26.00,2.00 L 26.00,6.00 L 30.00,6.00 L 30.00,2.00 L 34.00,2.00 L 38.00,2.00 L 38.00,6.00 L 34.00,6.00 L 34.00,10.00 L 34.00,14.00 L 38.00,14.00 L 38.00,10.00 L 42.00,10.00 L 42.00,14.00 L 46.00,14.00 L 46.00,10.00 L 46.00,6.00 L 42.00,6.00 L 42.00,2.00 L 46.00,2.00 L 50.00,2.00 L 50.00,6.00 L 54.00,6.00 L 54.00,2.00 L 58.00,2.00 L 62.00,2.00 L 62.00,6.00 L 58.00,6.00 L 58.00,10.00 L 62.00,10.00 L 62.00,14.00 L 58.00,14.00 L 54.00,14.00 L 54.00,10.00 L 50.00,10.00 L 50.00,14.00 L 50.00,18.00 L 50.00,22.00 L 54.00,22.00 L 54.00,18.00 L 58.00,18.00 L 62.00,18.00 L 62.00,22.00 L 58.00,22.00 L 58.00,26.00 L 62.00,26.00 L 62.00,30.00 L 58.00,30.00 L 54.00,30.00 L 54.00,26.00 L 50.00,26.00 L 50.00,30.00 L 46.00,30.00 L 42.00,30.00 L 42.00,26.00 L 46.00,26.00 L 46.00,22.00 L 46.00,18.00 L 42.00,18.00 L 42.00,22.00 L 38.00,22.00 L 38.00,18.00 L 34.00,18.00 L 34.00,22.00 L 34.00,26.00 L 38.00,26.00 L 38.00,30.00 L 34.00,30.00 L 34.00,34.00 L 38.00,34.00 L 38.00,38.00 L 34.00,38.00 L 34.00,42.00 L 34.00,46.00 L 38.00,46.00 L 38.00,42.00 L 42.00,42.00 L 42.00,46.00 L 46.00,46.00 L 46.00,42.00 L 46.00,38.00 L 42.00,38.00 L 42.00,34.00 L 46.00,34.00 L 50.00,34.00 L 50.00,38.00 L 54.00,38.00 L 54.00,34.00 L 58.00,34.00 L 62.00,34.00 L 62.00,38.00 L 58.00,38.00 L 58.00,42.00 L 62.00,42.00 L 62.00,46.00 L 58.00,46.00 L 54.00,46.00 L 54.00,42.00 L 50.00,42.00 L 50.00,46.00 L 50.00,50.00 L 50.00,54.00 L 54.00,54.00 L 54.00,50.00 L 58.00,50.00 L 62.00,50.00 L 62.00,54.00 L 58.00,54.00 L 58.00,58.00 L 62.00,58.00 L 62.00,62.00 L 58.00,62.00 L 54.00,62.00 L 54.00,58.00 L 50.00,58.00 L 50.00,62.00 L 46.00,62.00 L 42.00,62.00 L 42.00,58.00 L 46.00,58.00 L 46.00,54.00 L 46.00,50.00 L 42.00,50.00 L 42.00,54.00 L 38.00,54.00 L 38.00,50.00 L 34.00,50.00 L 34.00,54.00 L 34.00,58.00 L 38.00,58.00 L 38.00,62.00 L 34.00,62.00 L 30.00,62.00 L 30.00,58.00 L 26.00,58.00 L 26.00,62.00 L 22.00,62.00 L 18.00,62.00 L 18.00,58.00 L 22.00,58.00 L 22.00,54.00 L 18.00,54.00 L 18.00,50.00 L 22.00,50.00 L 26.00,50.00 L 26.00,54.00 L 30.00,54.00 L 30.00,50.00 L 30.00,46.00 L 26.00,46.00 L 26.00,42.00 L 30.00,42.00 L 30.00,38.00 L 30.00,34.00 L 26.00,34.00 L 26.00,38.00 L 22.00,38.00 L 22.00,34.00 L 18.00,34.00 L 18.00,38.00 L 18.00,42.00 L 22.00,42.00 L 22.00,46.00 L 18.00,46.00 L 14.00,46.00 L 10.00,46.00 L 10.00,42.00 L 14.00,42.00 L 14.00,38.00 L 14.00,34.00 L 10.00,34.00 L 10.00,38.00 L 6.00,38.00 L 6.00,34.00 L 2.00,34.00 L 2.00,38.00 L 2.00,42.00 L 6.00,42.00 L 6.00,46.00 L 2.00,46.00 L 2.00,50.00 L 2.00,54.00 L 6.00,54.00 L 6.00,50.00 L 10.00,50.00 L 14.00,50.00 L 14.00,54.00 L 10.00,54.00 L 10.00,58.00 L 14.00,58.00 L 14.00,62.00 L 10.00,62.00 L 6.00,62.00 L 6.00,58.00 L 2.00,58.00 L 2.00,62.00 L 2.00,66.00 L 6.00,66.00 L 6.00,70.00 L 2.00,70.00 L 2.00,74.00 L 2.00,78.00 L 6.00,78.00 L 6.00,74.00 L 10.00,74.00 L 10.00,78.00 L 14.00,78.00 L 14.00,74.00 L 14.00,70.00 L 10.00,70.00 L 10.00,66.00 L 14.00,66.00 L 18.00,66.00 L 18.00,70.00 L 22.00,70.00 L 22.00,66.00 L 26.00,66.00 L 30.00,66.00 L 30.00,70.00 L 26.00,70.00 L 26.00,74.00 L 30.00,74.00 L 30.00,78.00 L 26.00,78.00 L 22.00,78.00 L 22.00,74.00 L 18.00,74.00 L 18.00,78.00 L 18.00,82.00 L 18.00,86.00 L 22.00,86.00 L 22.00,82.00 L 26.00,82.00 L 30.00,82.00 L 30.00,86.00 L 26.00,86.00 L 26.00,90.00 L 30.00,90.00 L 30.00,94.00 L 26.00,94.00 L 22.00,94.00 L 22.00,90.00 L 18.00,90.00 L 18.00,94.00 L 14.00,94.00 L 10.00,94.00 L 10.00,90.00 L 14.00,90.00 L 14.00,86.00 L 14.00,82.00 L 10.00,82.00 L 10.00,86.00 L 6.00,86.00 L 6.00,82.00 L 2.00,82.00 L 2.00,86.00 L 2.00,90.00 L 6.00,90.00 L 6.00,94.00 L 2.00,94.00 L 2.00,98.00 L 2.00,102.00 L 6.00,102.00 L 6.00,98.00 L 10.00,98.00 L 14.00,98.00 L 14.00,102.00 L 10.00,102.00 L 10.00,106.00 L 14.00,106.00 L 14.00,110.00 L 10.00,110.00 L 6.00,110.00 L 6.00,106.00 L 2.00,106.00 L 2.00,110.00 L 2.00,114.00 L 6.00,114.00 L 6.00,118.00 L 2.00,118.00 L 2.00,122.00 L 2.00,126.00 L 6.00,126.00 L 6.00,122.00 L 10.00,122.00 L 10.00,126.00 L 14.00,126.00 L 14.00,122.00 L 14.00,118.00 L 10.00,118.00 L 10.00,114.00 L 14.00,114.00 L 18.00,114.00 L 22.00,114.00 L 22.00,118.00 L 18.00,118.00 L 18.00,122.00 L 18.00,126.00 L 22.00,126.00 L 22.00,122.00 L 26.00,122.00 L 26.00,126.00 L 30.00,126.00 L 30.00,122.00 L 30.00,118.00 L 26.00,118.00 L 26.00,114.00 L 30.00,114.00 L 30.00,110.00 L 30.00,106.00 L 26.00,106.00 L 26.00,110.00 L 22.00,110.00 L 18.00,110.00 L 18.00,106.00 L 22.00,106.00 L 22.00,102.00 L 18.00,102.00 L 18.00,98.00 L 22.00,98.00 L 26.00,98.00 L 26.00,102.00 L 30.00,102.00 L 30.00,98.00 L 34.00,98.00 L 34.00,102.00 L 38.00,102.00 L 38.00,98.00 L 42.00,98.00 L 46.00,98.00 L 46.00,102.00 L 42.00,102.00 L 42.00,106.00 L 46.00,106.00 L 46.00,110.00 L 42.00,110.00 L 38.00,110.00 L 38.00,106.00 L 34.00,106.00 L 34.00,110.00 L 34.00,114.00 L 38.00,114.00 L 38.00,118.00 L 34.00,118.00 L 34.00,122.00 L 34.00,126.00 L 38.00,126.00 L 38.00,122.00 L 42.00,122.00 L 42.00,126.00 L 46.00,126.00 L 46.00,122.00 L 46.00,118.00 L 42.00,118.00 L 42.00,114.00 L 46.00,114.00 L 50.00,114.00 L 54.00,114.00 L 54.00,118.00 L 50.00,118.00 L 50.00,122.00 L 50.00,126.00 L 54.00,126.00 L 54.00,122.00 L 58.00,122.00 L 58.00,126.00 L 62.00,126.00 L 62.00,122.00 L 62.00,118.00 L 58.00,118.00 L 58.00,114.00 L 62.00,114.00 L 62.00,110.00 L 62.00,106.00 L 58.00,106.00 L 58.00,110.00 L 54.00,110.00 L 50.00,110.00 L 50.00,106.00 L 54.00,106.00 L 54.00,102.00 L 50.00,102.00 L 50.00,98.00 L 54.00,98.00 L 58.00,98.00 L 58.00,102.00 L 62.00,102.00 L 62.00,98.00 L 62.00,94.00 L 58.00,94.00 L 58.00,90.00 L 62.00,90.00 L 62.00,86.00 L 62.00,82.00 L 58.00,82.00 L 58.00,86.00 L 54.00,86.00 L 54.00,82.00 L 50.00,82.00 L 50.00,86.00 L 50.00,90.00 L 54.00,90.00 L 54.00,94.00 L 50.00,94.00 L 46.00,94.00 L 46.00,90.00 L 42.00,90.00 L 42.00,94.00 L 38.00,94.00 L 34.00,94.00 L 34.00,90.00 L 38.00,90.00 L 38.00,86.00 L 34.00,86.00 L 34.00,82.00 L 38.00,82.00 L 42.00,82.00 L 42.00,86.00 L 46.00,86.00 L 46.00,82.00 L 46.00,78.00 L 46.00,74.00 L 42.00,74.00 L 42.00,78.00 L 38.00,78.00 L 34.00,78.00 L 34.00,74.00 L 38.00,74.00 L 38.00,70.00 L 34.00,70.00 L 34.00,66.00 L 38.00,66.00 L 42.00,66.00 L 42.00,70.00 L 46.00,70.00 L 46.00,66.00 L 50.00,66.00 L 54.00,66.00 L 54.00,70.00 L 50.00,70.00 L 50.00,74.00 L 50.00,78.00 L 54.00,78.00 L 54.00,74.00 L 58.00,74.00 L 58.00,78.00 L 62.00,78.00 L 62.00,74.00 L 62.00,70.00 L 58.00,70.00 L 58.00,66.00 L 62.00,66.00 L 66.00,66.00 L 70.00,66.00 L 70.00,70.00 L 66.00,70.00 L 66.00,74.00 L 66.00,78.00 L 70.00,78.00 L 70.00,74.00 L 74.00,74.00 L 74.00,78.00 L 78.00,78.00 L 78.00,74.00 L 78.00,70.00 L 74.00,70.00 L 74.00,66.00 L 78.00,66.00 L 82.00,66.00 L 82.00,70.00 L 86.00,70.00 L 86.00,66.00 L 90.00,66.00 L 94.00,66.00 L 94.00,70.00 L 90.00,70.00 L 90.00,74.00 L 94.00,74.00 L 94.00,78.00 L 90.00,78.00 L 86.00,78.00 L 86.00,74.00 L 82.00,74.00 L 82.00,78.00 L 82.00,82.00 L 82.00,86.00 L 86.00,86.00 L 86.00,82.00 L 90.00,82.00 L 94.00,82.00 L 94.00,86.00 L 90.00,86.00 L 90.00,90.00 L 94.00,90.00 L 94.00,94.00 L 90.00,94.00 L 86.00,94.00 L 86.00,90.00 L 82.00,90.00 L 82.00,94.00 L 78.00,94.00 L 74.00,94.00 L 74.00,90.00 L 78.00,90.00 L 78.00,86.00 L 78.00,82.00 L 74.00,82.00 L 74.00,86.00 L 70.00,86.00 L 70.00,82.00 L 66.00,82.00 L 66.00,86.00 L 66.00,90.00 L 70.00,90.00 L 70.00,94.00 L 66.00,94.00 L 66.00,98.00 L 66.00,102.00 L 70.00,102.00 L 70.00,98.00 L 74.00,98.00 L 78.00,98.00 L 78.00,102.00 L 74.00,102.00 L 74.00,106.00 L 78.00,106.00 L 78.00,110.00 L 74.00,110.00 L 70.00,110.00 L 70.00,106.00 L 66.00,106.00 L 66.00,110.00 L 66.00,114.00 L 70.00,114.00 L 70.00,118.00 L 66.00,118.00 L 66.00,122.00 L 66.00,126.00 L 70.00,126.00 L 70.00,122.00 L 74.00,122.00 L 74.00,126.00 L 78.00,126.00 L 78.00,122.00 L 78.00,118.00 L 74.00,118.00 L 74.00,114.00 L 78.00,114.00 L 82.00,114.00 L 86.00,114.00 L 86.00,118.00 L 82.00,118.00 L 82.00,122.00 L 82.00,126.00 L 86.00,126.00 L 86.00,122.00 L 90.00,122.00 L 90.00,126.00 L 94.00,126.00 L 94.00,122.00 L 94.00,118.00 L 90.00,118.00 L 90.00,114.00 L 94.00,114.00 L 94.00,110.00 L 94.00,106.00 L 90.00,106.00 L 90.00,110.00 L 86.00,110.00 L 82.00,110.00 L 82.00,106.00 L 86.00,106.00 L 86.00,102.00 L 82.00,102.00 L 82.00,98.00 L 86.00,98.00 L 90.00,98.00 L 90.00,102.00 L 94.00,102.00 L 94.00,98.00 L 98.00,98.00 L 98.00,102.00 L 102.00,102.00 L 102.00,98.00 L 106.00,98.00 L 110.00,98.00 L 110.00,102.00 L 106.00,102.00 L 106.00,106.00 L 110.00,106.00 L 110.00,110.00 L 106.00,110.00 L 102.00,110.00 L 102.00,106.00 L 98.00,106.00 L 98.00,110.00 L 98.00,114.00 L 102.00,114.00 L 102.00,118.00 L 98.00,118.00 L 98.00,122.00 L 98.00,126.00 L 102.00,126.00 L 102.00,122.00 L 106.00,122.00 L 106.00,126.00 L 110.00,126.00 L 110.00,122.00 L 110.00,118.00 L 106.00,118.00 L 106.00,114.00 L 110.00,114.00 L 114.00,114.00 L 118.00,114.00 L 118.00,118.00 L 114.00,118.00 L 114.00,122.00 L 114.00,126.00 L 118.00,126.00 L 118.00,122.00 L 122.00,122.00 L 122.00,126.00 L 126.00,126.00 L 126.00,122.00 L 126.00,118.00 L 122.00,118.00 L 122.00,114.00 L 126.00,114.00 L 126.00,110.00 L 126.00,106.00 L 122.00,106.00 L 122.00,110.00 L 118.00,110.00 L 114.00,110.00 L 114.00,106.00 L 118.00,106.00 L 118.00,102.00 L 114.00,102.00 L 114.00,98.00 L 118.00,98.00 L 122.00,98.00 L 122.00,102.00 L 126.00,102.00 L 126.00,98.00 L 126.00,94.00 L 122.00,94.00 L 122.00,90.00 L 126.00,90.00 L 126.00,86.00 L 126.00,82.00 L 122.00,82.00 L 122.00,86.00 L 118.00,86.00 L 118.00,82.00 L 114.00,82.00 L 114.00,86.00 L 114.00,90.00 L 118.00,90.00 L 118.00,94.00 L 114.00,94.00 L 110.00,94.00 L 110.00,90.00 L 106.00,90.00 L 106.00,94.00 L 102.00,94.00 L 98.00,94.00 L 98.00,90.00 L 102.00,90.00 L 102.00,86.00 L 98.00,86.00 L 98.00,82.00 L 102.00,82.00 L 106.00,82.00 L 106.00,86.00 L 110.00,86.00 L 110.00,82.00 L 110.00,78.00 L 110.00,74.00 L 106.00,74.00 L 106.00,78.00 L 102.00,78.00 L 98.00,78.00 L 98.00,74.00 L 102.00,74.00 L 102.00,70.00 L 98.00,70.00 L 98.00,66.00 L 102.00,66.00 L 106.00,66.00 L 106.00,70.00 L 110.00,70.00 L 110.00,66.00 L 114.00,66.00 L 118.00,66.00 L 118.00,70.00 L 114.00,70.00 L 114.00,74.00 L 114.00,78.00 L 118.00,78.00 L 118.00,74.00 L 122.00,74.00 L 122.00,78.00 L 126.00,78.00 L 126.00,74.00 L 126.00,70.00 L 122.00,70.00 L 122.00,66.00 L 126.00,66.00 L 126.00,62.00 L 126.00,58.00 L 122.00,58.00 L 122.00,62.00 L 118.00,62.00 L 114.00,62.00 L 114.00,58.00 L 118.00,58.00 L 118.00,54.00 L 114.00,54.00 L 114.00,50.00 L 118.00,50.00 L 122.00,50.00 L 122.00,54.00 L 126.00,54.00 L 126.00,50.00 L 126.00,46.00 L 122.00,46.00 L 122.00,42.00 L 126.00,42.00 L 126.00,38.00 L 126.00,34.00 L 122.00,34.00 L 122.00,38.00 L 118.00,38.00 L 118.00,34.00 L 114.00,34.00 L 114.00,38.00 L 114.00,42.00 L 118.00,42.00 L 118.00,46.00 L 114.00,46.00 L 110.00,46.00 L 106.00,46.00 L 106.00,42.00 L 110.00,42.00 L 110.00,38.00 L 110.00,34.00 L 106.00,34.00 L 106.00,38.00 L 102.00,38.00 L 102.00,34.00 L 98.00,34.00 L 98.00,38.00 L 98.00,42.00 L 102.00,42.00 L 102.00,46.00 L 98.00,46.00 L 98.00,50.00 L 98.00,54.00 L 102.00,54.00 L 102.00,50.00 L 106.00,50.00 L 110.00,50.00 L 110.00,54.00 L 106.00,54.00 L 106.00,58.00 L 110.00,58.00 L 110.00,62.00 L 106.00,62.00 L 102.00,62.00 L 102.00,58.00 L 98.00,58.00 L 98.00,62.00 L 94.00,62.00 L 90.00,62.00 L 90.00,58.00 L 94.00,58.00 L 94.00,54.00 L 94.00,50.00 L 90.00,50.00 L 90.00,54.00 L 86.00,54.00 L 86.00,50.00 L 82.00,50.00 L 82.00,54.00 L 82.00,58.00 L 86.00,58.00 L 86.00,62.00 L 82.00,62.00 L 78.00,62.00 L 78.00,58.00 L 74.00,58.00 L 74.00,62.00 L 70.00,62.00 L 66.00,62.00 L 66.00,58.00 L 70.00,58.00 L 70.00,54.00 L 66.00,54.00 L 66.00,50.00 L 70.00,50.00 L 74.00,50.00 L 74.00,54.00 L 78.00,54.00 L 78.00,50.00 L 78.00,46.00 L 78.00,42.00 L 74.00,42.00 L 74.00,46.00 L 70.00,46.00 L 66.00,46.00 L 66.00,42.00 L 70.00,42.00 L 70.00,38.00 L 66.00,38.00 L 66.00,34.00 L 70.00,34.00 L 74.00,34.00 L 74.00,38.00 L 78.00,38.00 L 78.00,34.00 L 82.00,34.00 L 86.00,34.00 L 86.00,38.00 L 82.00,38.00 L 82.00,42.00 L 82.00,46.00 L 86.00,46.00 L 86.00,42.00 L 90.00,42.00 L 90.00,46.00 L 94.00,46.00 L 94.00,42.00 L 94.00,38.00 L 90.00,38.00 L 90.00,34.00 L 94.00,34.00 L 94.00,30.00 L 90.00,30.00 L 90.00,26.00 L 94.00,26.00 L 94.00,22.00 L 94.00,18.00 L 90.00,18.00 L 90.00,22.00 L 86.00,22.00 L 86.00,18.00 L 82.00,18.00 L 82.00,22.00 L 82.00,26.00 L 86.00,26.00 L 86.00,30.00 L 82.00,30.00 L 78.00,30.00 L 78.00,26.00 L 74.00,26.00 L 74.00,30.00 L 70.00,30.00 L 66.00,30.00 L 66.00,26.00 L 70.00,26.00 L 70.00,22.00 L 66.00,22.00 L 66.00,18.00 L 70.00,18.00 L 74.00,18.00 L 74.00,22.00 L 78.00,22.00 L 78.00,18.00 L 78.00,14.00 L 78.00,10.00 L 74.00,10.00 L 74.00,14.00 L 70.00,14.00 L 66.00,14.00 L 66.00,10.00 L 70.00,10.00 L 70.00,6.00 L 66.00,6.00 L 66.00,2.00 L 70.00,2.00 L 74.00,2.00 L 74.00,6.00 L 78.00,6.00 L 78.00,2.00 L 82.00,2.00 L 86.00,2.00 L 86.00,6.00 L 82.00,6.00 L 82.00,10.00 L 82.00,14.00 L 86.00,14.00 L 86.00,10.00 L 90.00,10.00 L 90.00,14.00 L 94.00,14.00 L 94.00,10.00 L 94.00,6.00 L 90.00,6.00 L 90.00,2.00 L 94.00,2.00 L 98.00,2.00 L 98.00,6.00 L 102.00,6.00 L 102.00,2.00 L 106.00,2.00 L 110.00,2.00 L 110.00,6.00 L 106.00,6.00 L 106.00,10.00 L 110.00,10.00 L 110.00,14.00 L 106.00,14.00 L 102.00,14.00 L 102.00,10.00 L 98.00,10.00 L 98.00,14.00 L 98.00,18.00 L 102.00,18.00 L 102.00,22.00 L 98.00,22.00 L 98.00,26.00 L 98.00,30.00 L 102.00,30.00 L 102.00,26.00 L 106.00,26.00 L 106.00,30.00 L 110.00,30.00 L 110.00,26.00 L 110.00,22.00 L 106.00,22.00 L 106.00,18.00 L 110.00,18.00 L 114.00,18.00 L 118.00,18.00 L 118.00,22.00 L 114.00,22.00 L 114.00,26.00 L 114.00,30.00 L 118.00,30.00 L 118.00,26.00 L 122.00,26.00 L 122.00,30.00 L 126.00,30.00 L 126.00,26.00 L 126.00,22.00 L 122.00,22.00 L 122.00,18.00 L 126.00,18.00 L 126.00,14.00 L 126.00,10.00 L 122.00,10.00 L 122.00,14.00 L 118.00,14.00 L 114.00,14.00 L 114.00,10.00 L 118.00,10.00 L 118.00,6.00 L 114.00,6.00 L 114.00,2.00 L 118.00,2.00 L 122.00,2.00 L 122.00,6.00 L 126.00,6.00 L 126.00,2.00"
    fill="none"
    stroke="#185FA5"
    stroke-width="2"
    stroke-linecap="round"
    stroke-linejoin="round"
  />
</svg>
