<?xml version="1.0" encoding="UTF-8"?>
<svg id="svg4247" xmlns="http://www.w3.org/2000/svg" xmlns:xlink="http://www.w3.org/1999/xlink" xmlns:svg="http://www.w3.org/2000/svg" xmlns:sodipodi="http://sodipodi.sourceforge.net/DTD/sodipodi-0.dtd" xmlns:rdf="http://www.w3.org/1999/02/22-rdf-syntax-ns#" xmlns:inkscape="http://www.inkscape.org/namespaces/inkscape" xmlns:dc="http://purl.org/dc/elements/1.1/" xmlns:cc="http://creativecommons.org/ns#" version="1.1" viewBox="0 0 117.9 118.5">
  <!-- Generator: Adobe Illustrator 30.3.0, SVG Export Plug-In . SVG Version: 2.1.3 Build 182)  -->
  <defs>
    <style>
      .st0 {
        opacity: .7;
      }

      .st0, .st1, .st2, .st3, .st4, .st5, .st6 {
        isolation: isolate;
      }

      .st0, .st7 {
        fill: #2d3335;
      }

      .st8, .st2, .st9, .st6 {
        fill: none;
      }

      .st1 {
        opacity: .5;
      }

      .st10 {
        fill: url(#linear-gradient2);
      }

      .st11 {
        fill: url(#linear-gradient1);
      }

      .st12 {
        fill: url(#linear-gradient9);
      }

      .st13 {
        fill: url(#linear-gradient3);
      }

      .st14 {
        fill: url(#linear-gradient6);
      }

      .st15 {
        fill: url(#linear-gradient8);
      }

      .st16 {
        fill: url(#linear-gradient7);
      }

      .st17 {
        fill: url(#linear-gradient5);
      }

      .st18 {
        fill: url(#linear-gradient4);
      }

      .st19 {
        fill: url(#linear-gradient18);
      }

      .st20 {
        fill: url(#linear-gradient13);
      }

      .st21 {
        fill: url(#linear-gradient12);
      }

      .st22 {
        fill: url(#linear-gradient15);
      }

      .st23 {
        fill: url(#linear-gradient16);
      }

      .st24 {
        fill: url(#linear-gradient11);
      }

      .st25 {
        fill: url(#linear-gradient10);
      }

      .st26 {
        fill: url(#linear-gradient17);
      }

      .st27 {
        fill: url(#linear-gradient14);
      }

      .st28 {
        fill: url(#linear-gradient19);
      }

      .st29 {
        fill: url(#linear-gradient21);
      }

      .st30 {
        fill: url(#linear-gradient20);
      }

      .st2, .st6 {
        opacity: .39;
        stroke: #6d7f42;
      }

      .st31 {
        fill: url(#radial-gradient);
      }

      .st32 {
        fill: url(#linear-gradient);
      }

      .st9 {
        stroke: #d38484;
        stroke-width: 2px;
      }

      .st9, .st6 {
        stroke-linecap: round;
      }

      .st33 {
        clip-path: url(#clippath-1);
      }

      .st34 {
        clip-path: url(#clippath-2);
      }

      .st35 {
        fill: #9eaaac;
      }

      .st36 {
        fill: #a6dd8b;
      }

      .st3 {
        fill: url(#linear-gradient23);
        opacity: .6;
      }

      .st4 {
        fill: url(#linear-gradient22);
        opacity: .6;
      }

      .st5 {
        fill: url(#linear-gradient24);
        opacity: .77;
      }

      .st37 {
        opacity: .27;
      }

      .st38 {
        opacity: .04;
      }

      .st39 {
        fill: #aac3e7;
      }

      .st6 {
        stroke-linejoin: round;
      }

      .st40 {
        clip-path: url(#clippath);
      }

      .st41 {
        fill: #d0e9f2;
        fill-opacity: .48;
      }

      .st42 {
        fill: #ceeeab;
      }
    </style>
    <linearGradient id="linear-gradient" x1="57.25" y1="-777.14" x2="57.25" y2="-660.74" gradientTransform="translate(0 -543.38) scale(1 -.85)" gradientUnits="userSpaceOnUse">
      <stop offset="0" stop-color="#000"/>
      <stop offset="1" stop-color="#000" stop-opacity="0"/>
    </linearGradient>
    <clipPath id="clippath">
      <path class="st8" d="M2.9,2s3.6,6.3,5.7,13.4c2.1,7.1,3,12.3,3,12.3,0,0-2.7,6.2-4,11.9-1.3,5.8-2.8,11.1-2.8,11.1,0,0,2.8,7.7,4.5,14.5,1.7,6.8,1.8,11.7,1.8,11.7,0,0-1.9,4.9-3.6,11.7-1.7,6.8-2.4,14.8-2.4,14.8,0,0,4.5-1,13.8.6,9.3,1.6,15.6,2.9,15.6,2.9,0,0,6.2-1.3,11.6-3s7.8-3.1,7.8-3.1c0,0,2.7.2,10.9,3s14.1,4.1,14.1,4.1c0,0,6.3-1.3,12.6-2.8,6.3-1.4,12.8-3.9,12.8-3.9,0,0-.4-2.4,2.1-11.8,2.2-9.3,4-13.4,4-13.4,0,0-.2-2.2-1.8-9.5-1.6-7.4-4.8-14.4-4.8-14.4,0,0,.8-5.1,3.3-11.5,2.4-6.4,4.9-12.9,4.9-12.9,0,0-2.3-7.4-3.6-14.4s-4-12.4-4-12.4c0,0-11.8,4.3-15.4,5.1-3.6.7-10.1,2.5-10.1,2.5,0,0-4.7-2.1-10.6-4.1s-14.4-2.7-14.4-2.7c0,0-1.6,1.7-10.6,3.9-9,2.2-13.3,2.8-13.3,2.8,0,0-8.9-4.4-15.2-5.6S3.2,1.9,2.9,2Z"/>
    </clipPath>
    <clipPath id="clippath-1">
      <path class="st8" d="M2.6-18s3.6,6.3,5.7,13.4c2.1,7.1,3,12.3,3,12.3,0,0-2.7,6.2-4,11.9-1.3,5.8-2.8,11.1-2.8,11.1,0,0,2.8,7.7,4.5,14.5,1.7,6.8,1.8,11.7,1.8,11.7,0,0-1.9,4.9-3.6,11.7-1.7,6.8-2.4,14.8-2.4,14.8,0,0,4.5-1,13.8.6,9.3,1.6,15.6,2.9,15.6,2.9,0,0,6.2-1.3,11.6-3s7.8-3.1,7.8-3.1c0,0,2.7.2,10.9,3s14.1,4.1,14.1,4.1c0,0,6.3-1.3,12.6-2.8,6.3-1.4,12.8-3.9,12.8-3.9,0,0-.4-2.4,2.1-11.8,2.2-9.3,4-13.4,4-13.4,0,0-.2-2.2-1.8-9.5-1.6-7.4-4.8-14.4-4.8-14.4,0,0,.8-5.1,3.3-11.5,2.4-6.4,4.9-12.9,4.9-12.9,0,0-2.3-7.4-3.6-14.4s-4-12.4-4-12.4c0,0-11.8,4.3-15.4,5.1-3.6.7-10.1,2.5-10.1,2.5,0,0-4.7-2.1-10.6-4.1s-14.4-2.7-14.4-2.7c0,0-1.6,1.7-10.6,3.9-9,2.2-13.3,2.8-13.3,2.8,0,0-8.9-4.4-15.2-5.6s-11.6-.9-11.9-.8Z"/>
    </clipPath>
    <clipPath id="clippath-2">
      <path class="st8" d="M2.6-18s3.6,6.3,5.7,13.4c2.1,7.1,3,12.3,3,12.3,0,0-2.7,6.2-4,11.9-1.3,5.8-2.8,11.1-2.8,11.1,0,0,2.8,7.7,4.5,14.5,1.7,6.8,1.8,11.7,1.8,11.7,0,0-1.9,4.9-3.6,11.7-1.7,6.8-2.4,14.8-2.4,14.8,0,0,4.5-1,13.8.6,9.3,1.6,15.6,2.9,15.6,2.9,0,0,6.2-1.3,11.6-3s7.8-3.1,7.8-3.1c0,0,2.7.2,10.9,3s14.1,4.1,14.1,4.1c0,0,6.3-1.3,12.6-2.8,6.3-1.4,12.8-3.9,12.8-3.9,0,0-.4-2.4,2.1-11.8,2.2-9.3,4-13.4,4-13.4,0,0-.2-2.2-1.8-9.5-1.6-7.4-4.8-14.4-4.8-14.4,0,0,.8-5.1,3.3-11.5,2.4-6.4,4.9-12.9,4.9-12.9,0,0-2.3-7.4-3.6-14.4s-4-12.4-4-12.4c0,0-11.8,4.3-15.4,5.1-3.6.7-10.1,2.5-10.1,2.5,0,0-4.7-2.1-10.6-4.1s-14.4-2.7-14.4-2.7c0,0-1.6,1.7-10.6,3.9-9,2.2-13.3,2.8-13.3,2.8,0,0-8.9-4.4-15.2-5.6s-11.6-.9-11.9-.8Z"/>
    </clipPath>
    <linearGradient id="linear-gradient1" x1="102.04" y1="-381.29" x2="78.99" y2="-404.28" gradientTransform="translate(0 -370) scale(1 -1)" gradientUnits="userSpaceOnUse">
      <stop offset="0" stop-color="#fff"/>
      <stop offset="1" stop-color="#fff" stop-opacity="0"/>
    </linearGradient>
    <linearGradient id="linear-gradient2" x1="19.54" y1="-397.99" x2="21.67" y2="-428.9" gradientTransform="translate(0 -370) scale(1 -1)" gradientUnits="userSpaceOnUse">
      <stop offset="0" stop-color="#fff"/>
      <stop offset="1" stop-color="#fff" stop-opacity="0"/>
    </linearGradient>
    <linearGradient id="linear-gradient3" x1="18.8" y1="-464.29" x2="36.28" y2="-452.83" gradientTransform="translate(0 -370) scale(1 -1)" gradientUnits="userSpaceOnUse">
      <stop offset="0" stop-color="#fff"/>
      <stop offset="1" stop-color="#fff" stop-opacity="0"/>
    </linearGradient>
    <linearGradient id="linear-gradient4" x1="48.13" y1="-380.68" x2="40.08" y2="-400.42" gradientTransform="translate(0 -370) scale(1 -1)" gradientUnits="userSpaceOnUse">
      <stop offset="0" stop-color="#fff"/>
      <stop offset="1" stop-color="#fff" stop-opacity="0"/>
    </linearGradient>
    <linearGradient id="linear-gradient5" x1="56.98" y1="-422.72" x2="30.8" y2="-453.3" gradientTransform="translate(0 -370) scale(1 -1)" gradientUnits="userSpaceOnUse">
      <stop offset="0" stop-color="#fff"/>
      <stop offset="1" stop-color="#fff" stop-opacity="0"/>
    </linearGradient>
    <linearGradient id="linear-gradient6" x1="82.84" y1="-396.48" x2="60.27" y2="-427.55" gradientTransform="translate(0 -370) scale(1 -1)" gradientUnits="userSpaceOnUse">
      <stop offset="0" stop-color="#fff"/>
      <stop offset="1" stop-color="#fff" stop-opacity="0"/>
    </linearGradient>
    <linearGradient id="linear-gradient7" x1="79.88" y1="-446.89" x2="60.32" y2="-474.34" gradientTransform="translate(0 -370) scale(1 -1)" gradientUnits="userSpaceOnUse">
      <stop offset="0" stop-color="#fff"/>
      <stop offset="1" stop-color="#fff" stop-opacity="0"/>
    </linearGradient>
    <linearGradient id="linear-gradient8" x1="101.92" y1="-422.37" x2="86.6" y2="-456.32" gradientTransform="translate(0 -370) scale(1 -1)" gradientUnits="userSpaceOnUse">
      <stop offset="0" stop-color="#fff"/>
      <stop offset="1" stop-color="#fff" stop-opacity="0"/>
    </linearGradient>
    <linearGradient id="linear-gradient9" x1="44.56" y1="-412.18" x2="3.41" y2="-371" gradientTransform="translate(0 -370) scale(1 -1)" gradientUnits="userSpaceOnUse">
      <stop offset="0" stop-color="#000"/>
      <stop offset="1" stop-color="#000" stop-opacity="0"/>
    </linearGradient>
    <linearGradient id="linear-gradient10" x1="25.39" y1="-403.99" x2="18.15" y2="-444.54" gradientTransform="translate(0 -370) scale(1 -1)" gradientUnits="userSpaceOnUse">
      <stop offset="0" stop-color="#000"/>
      <stop offset="1" stop-color="#000" stop-opacity="0"/>
    </linearGradient>
    <linearGradient id="linear-gradient11" x1="31.23" y1="-381.9" x2="49.39" y2="-424.61" gradientTransform="translate(0 -370) scale(1 -1)" gradientUnits="userSpaceOnUse">
      <stop offset="0" stop-color="#000"/>
      <stop offset="1" stop-color="#000" stop-opacity="0"/>
    </linearGradient>
    <linearGradient id="linear-gradient12" x1="20.34" y1="-440.58" x2="53.75" y2="-468.34" gradientTransform="translate(0 -370) scale(1 -1)" gradientUnits="userSpaceOnUse">
      <stop offset="0" stop-color="#000"/>
      <stop offset="1" stop-color="#000" stop-opacity="0"/>
    </linearGradient>
    <linearGradient id="linear-gradient13" x1="14.89" y1="-381.67" x2="85.24" y2="-389.64" gradientTransform="translate(0 -370) scale(1 -1)" gradientUnits="userSpaceOnUse">
      <stop offset="0" stop-color="#000"/>
      <stop offset="1" stop-color="#000" stop-opacity="0"/>
    </linearGradient>
    <linearGradient id="linear-gradient14" x1="19.74" y1="-397.95" x2="78.63" y2="-445.98" gradientTransform="translate(0 -370) scale(1 -1)" gradientUnits="userSpaceOnUse">
      <stop offset="0" stop-color="#000"/>
      <stop offset="1" stop-color="#000" stop-opacity="0"/>
    </linearGradient>
    <linearGradient id="linear-gradient15" x1="78.52" y1="-441.99" x2="103.74" y2="-473.97" gradientTransform="translate(0 -370) scale(1 -1)" gradientUnits="userSpaceOnUse">
      <stop offset="0" stop-color="#000"/>
      <stop offset="1" stop-color="#000" stop-opacity="0"/>
    </linearGradient>
    <linearGradient id="linear-gradient16" x1="63.13" y1="-381.01" x2="107.66" y2="-425.42" gradientTransform="translate(0 -370) scale(1 -1)" gradientUnits="userSpaceOnUse">
      <stop offset="0" stop-color="#000"/>
      <stop offset="1" stop-color="#000" stop-opacity="0"/>
    </linearGradient>
    <linearGradient id="linear-gradient17" x1="171.64" y1="-95.43" x2="179.37" y2="-95.43" gradientTransform="translate(-62.27 -160.49) rotate(45) scale(1.39 -1.39)" gradientUnits="userSpaceOnUse">
      <stop offset="0" stop-color="#f9e295"/>
      <stop offset=".12" stop-color="#f7dd84"/>
      <stop offset=".21" stop-color="#fff"/>
      <stop offset=".3" stop-color="#f4ce51"/>
      <stop offset=".34" stop-color="#f9e7aa"/>
      <stop offset="1" stop-color="#efbb0e"/>
    </linearGradient>
    <radialGradient id="radial-gradient" cx="164.94" cy="168.82" fx="164.94" fy="168.82" r="22.68" gradientTransform="translate(86.2 -295.09) rotate(45) scale(1.42)" gradientUnits="userSpaceOnUse">
      <stop offset="0" stop-color="#d0e9f2" stop-opacity="0"/>
      <stop offset=".84" stop-color="#d0e9f2" stop-opacity="0"/>
      <stop offset=".94" stop-color="#d0e9f2" stop-opacity=".28"/>
      <stop offset="1" stop-color="#d0e9f2"/>
    </radialGradient>
    <linearGradient id="linear-gradient18" x1="175.45" y1="-118.95" x2="176.84" y2="-123.29" gradientTransform="translate(3.67 -226.44) rotate(45) scale(1.39 -1.39)" gradientUnits="userSpaceOnUse">
      <stop offset="0" stop-color="#2d3335"/>
      <stop offset=".5" stop-color="#4c464a"/>
      <stop offset="1" stop-color="#384042"/>
    </linearGradient>
    <linearGradient id="linear-gradient19" x1="-841.74" y1="-126.67" x2="-836.92" y2="-126.67" gradientTransform="translate(-649.73 -879.84) rotate(-135) scale(1.39)" gradientUnits="userSpaceOnUse">
      <stop offset="0" stop-color="#2d3335"/>
      <stop offset=".5" stop-color="#4c464a"/>
      <stop offset="1" stop-color="#384042"/>
    </linearGradient>
    <linearGradient id="linear-gradient20" x1="171.64" y1="-144.32" x2="179.36" y2="-144.32" gradientTransform="translate(3.67 -226.44) rotate(45) scale(1.39 -1.39)" gradientUnits="userSpaceOnUse">
      <stop offset="0" stop-color="#f9e295"/>
      <stop offset=".12" stop-color="#f7dd84"/>
      <stop offset=".21" stop-color="#fff"/>
      <stop offset=".3" stop-color="#f4ce51"/>
      <stop offset=".34" stop-color="#f9e7aa"/>
      <stop offset="1" stop-color="#efbb0e"/>
    </linearGradient>
    <linearGradient id="linear-gradient21" x1="-588.04" y1="-77.11" x2="-583.21" y2="-77.11" gradientTransform="translate(-985.08 -1197.81) rotate(-135) scale(2.78 2.46)" gradientUnits="userSpaceOnUse">
      <stop offset="0" stop-color="#2d3335"/>
      <stop offset=".5" stop-color="#4c464a"/>
      <stop offset="1" stop-color="#384042"/>
    </linearGradient>
    <linearGradient id="linear-gradient22" x1="-594.78" y1="-83.63" x2="-582.71" y2="-75.25" gradientTransform="translate(-985.08 -1197.81) rotate(-135) scale(2.78 2.46)" gradientUnits="userSpaceOnUse">
      <stop offset="0" stop-color="#000"/>
      <stop offset="1" stop-color="#000" stop-opacity="0"/>
    </linearGradient>
    <linearGradient id="linear-gradient23" x1="64.7" y1="-568.04" x2="90.44" y2="-619.88" gradientTransform="translate(0 -562) scale(1 -1)" gradientUnits="userSpaceOnUse">
      <stop offset="0" stop-color="#fff"/>
      <stop offset="1" stop-color="#fff" stop-opacity="0"/>
    </linearGradient>
    <linearGradient id="linear-gradient24" x1="-1833.07" y1="2186.19" x2="-1807.33" y2="2134.36" gradientTransform="translate(-390.62 -514.98) rotate(158.47) scale(.54 -.33) skewX(32.32)" gradientUnits="userSpaceOnUse">
      <stop offset="0" stop-color="#fff"/>
      <stop offset="1" stop-color="#fff" stop-opacity="0"/>
    </linearGradient>
  </defs>
  <sodipodi:namedview id="namedview4249" bordercolor="#666666" borderopacity="1" gridtolerance="10" guidetolerance="10" inkscape:current-layer="g4255" inkscape:cx="239.91391" inkscape:cy="46.706091" inkscape:pageopacity="0" inkscape:pageshadow="2" inkscape:window-height="704" inkscape:window-maximized="0" inkscape:window-width="1366" inkscape:window-x="0" inkscape:window-y="27" inkscape:zoom="1.246935" objecttolerance="10" pagecolor="#ffffff" showgrid="false"/>
  <g id="layer8">
    <g id="g8737">
      <g id="path3834-49-7" class="st1">
        <path class="st32" d="M2.6,21.3s3.6,4.5,5.7,10.5c2.1,6,3,10.4,3,10.4,0,0-2.7,5.2-4,10.1-1.3,4.9-2.8,10.2-2.8,10.2,0,0,2.8,6.5,4.5,12.3s1.8,9.1,1.8,9.1c0,0-1.9,4.2-3.6,9.9-1.7,5.7-2.4,12.6-2.4,12.6,0,0,4.5-.8,13.8.5,9.3,1.3,15.6,2.5,15.6,2.5,0,0,6.2-1.1,11.6-2.6,5.4-1.4,7.8-2.7,7.8-2.7,0,0,2.7.2,10.9,2.6s14.1,3.5,14.1,3.5c0,0,6.3-1.1,12.6-2.3,6.3-1.2,12.8-3.3,12.8-3.3,0,0-.4-2,2.1-10,2.4-8,4.2-11.4,4.2-11.4,0,0-.2-1-1.8-7.3s-4.8-12.2-4.8-12.2c0,0,.8-5.1,3.3-10.5,2.4-5.4,4.9-10.9,4.9-10.9,0,0-2.3-6.2-3.6-12.2s-4-9.7-4-9.7c0,0-11.7,3.7-15.3,4.3-3.6.6-10.1,2.1-10.1,2.1,0,0-4.7-1.7-10.6-3.5-5.9-1.7-14.4-2.2-14.4-2.2,0,0-1.6,1.4-10.6,3.3s-13.3,2.3-13.3,2.3c0,0-9.2-3.7-15.5-4.7s-11.6-.8-11.9-.7Z"/>
      </g>
    </g>
  </g>
  <g id="layer4">
    <path id="path3834-9" class="st42" d="M2.6,2s3.6,6.3,5.7,13.4c2.1,7.1,3,12.3,3,12.3,0,0-2.7,6.2-4,11.9-1.3,5.8-2.8,11.1-2.8,11.1,0,0,2.8,7.7,4.5,14.5s1.8,11.7,1.8,11.7c0,0-1.9,4.9-3.6,11.7-1.7,6.8-2.4,14.8-2.4,14.8,0,0,4.5-1,13.8.6,9.3,1.6,15.6,2.9,15.6,2.9,0,0,6.2-1.3,11.6-3s7.8-3.1,7.8-3.1c0,0,2.7.2,10.9,3s14.1,4.1,14.1,4.1c0,0,6.3-1.3,12.6-2.8,6.3-1.4,12.8-3.9,12.8-3.9,0,0-.4-2.4,2.1-11.8,2.2-9.3,4-13.4,4-13.4,0,0-.2-2.2-1.8-9.5-1.6-7.4-4.8-14.4-4.8-14.4,0,0,.8-5.1,3.3-11.5,2.4-6.4,4.9-12.9,4.9-12.9,0,0-2.3-7.4-3.6-14.4s-4-12.4-4-12.4c0,0-11.8,4.3-15.4,5.1-3.6.7-10.1,2.5-10.1,2.5,0,0-4.7-2.1-10.6-4.1s-14.4-2.7-14.4-2.7c0,0-1.6,1.7-10.6,3.9s-13.3,2.8-13.3,2.8c0,0-8.9-4.4-15.2-5.6S2.9,1.9,2.6,2Z"/>
    <g class="st40">
      <g id="g5438">
        <path id="path5436" class="st36" d="M51.7-1.3l-2.1,3.4c-.4,4.3-1.1,6.6-4.1,8-3,1.3-5.9,1.7-5.3,3.6s6.3,4.5,6.9,6.3,4,.8,5.3,3.4c1.3,2.5,1,7.4-1.8,8.3s-8.4.2-9.8,4.6c-1.3,4.3-2.3,5.1-4.3,6.2s-3.5,5.1-1.7,8,5.9-.6,7.2-3.1,3.5-4.2,3.5-4.2h11.5l28.5-.8,1.6-1.8s1.6,1.9,1.3,4.2c-.2,2.3-1.8,7.1.1,8.3s9.4-1,11.6-3.4-2.3-13.6-5.1-14.2-8.9-.8-8.2-3.4c.7-2.5,5.7,2.2,8.3,1.6,2.7-.6,8.1-10.1,5.8-12.2s-11.7-2.5-12.4-3.9c-.7-1.3,10.1-3.9,10.7-5.3.6-1.4-1.2-3.5-3-4.1s-6.8,7.8-10.1,7.6-9.7,2.8-8.3,5.6c1.3,2.8-2.9,5.3-7,3.1s-11.9-6.3-10.5-11.6,10.4-9.1,10.4-9.1L51.7-1.3ZM45.1,50.5c-.8.1-2.2,2.3-2.4,3.4-.2,1.2-1.6,3.3-1.7,5.9s2.3,3.3,4.2,3.1c1.9-.1,1.3-3.3,1-7.2-.1,0-.2-4.9-1.1-5.2q.1,0,0,0ZM89.9,75.4c-3.1.1-3.2,3.6-3.6,4.3-.6,1.1,1.1,6.6,1,8.7s-2.3,2.5-4.6,4.7c-2.3,2.2.2,7.7,5.4,15l21.6.6-.5-16.9s2.3-2.1-10-11.7c-4.6-3.7-7.5-4.8-9.3-4.7ZM17.5,83.4c-1.9-.1-4,2.8-4.7,3.7-.7,1-3,2.4-8.2,4.6l-7,16.5,25.6,2.1s.8-5.3-2.1-7.6c-2.9-2.3-8.3-2.8-8.8-6.4s4.5-4.8,6.6-6.9c2.2-2.1,1-5.4-1.1-5.9-.1-.1-.2-.1-.3-.1Z"/>
      </g>
    </g>
    <path id="path5280" class="st39" d="M74.7,37.3c-2.3,0-4.4.5-5.6,1.5-3.9,3.4-16.9.4-23.4,3.4s-6.4,18.3-7.1,21.5-8.4,10-9.7,11.3c-1.2,1.3-6.4,3.5-9.4,4.1s-6.2,3.5-7.5,5.3c-1,1.3-3.6,3.1-4.9,4,0,.1,0,.2-.1.3-.1.3-.1.5-.2.8,2.4-.8,5.4-3.9,8-6.6,3-3,9.7-3.7,13.4-5.6s6.9-9.5,12.8-11.5,10.3,5.7,11.7,8.9c1.4,3.3.8,6.2,1.8,8.2,1,2.1,5.3,5.7,5.6,6.5.2.8-2.4,3.1-3,4.1s-5.1,3.4-5.7,4.2c-.5.7-.9,3.3-1.1,4.5.2-.1.4-.1.5-.2.2-1.2.7-3.4,1.4-4.1,1-1,5.4-2.2,6-4.1s3.4-3.1,3.4-3.1c0,0,1.3,1.9,7.7,6.8,4.3,3.2,6.2,7.5,7,10,.3.1.7.2,1,.3-.6-2.1-2.3-7.8-4.3-10-2.4-2.7-8.9-5.2-11-10.6s-11.8-16.5-8.4-19.4,8-1.9,13.8,3.6c5.8,5.6,22.3,2.8,27.9,1.8,4.8-.8,10.1,7.2,11.5,12.6.3-1,.5-1.9.8-2.8-.8-.9-1.8-2.2-2.6-4-1.8-4.1-5.8-6.4-5.8-6.4,0,0,4.2-2.4,7.1-3.7.8-.4,1.5-.8,2-1.3-.1-.4-.1-.6-.2-1v-.2c-2.3,2.7-9.3,4.6-10.5,5.3-1.3.7-8.8,1.4-17.3,2.2-8.4.7-12.9-3.6-16.5-7.1s-6.3-17.4-1.4-18.3c4.8-1,9.7,6.6,14.5,8.2,4.8,1.6,10.4-7.6,9.5-13-.4-4.1-6.6-6.4-11.7-6.4ZM49,43.7c.6,0,2.8.8,3.2,1.1,1.1,1.2,1,3.5,0,3.9s-6.2,3.9-5.1,6.9.8,8.7-1.7,8.7-3.9,0-4.8-1.2c-1-1.2-1-5.8,0-9.5s1.7-7.2,3.9-8.8c1.4-1.2,3.1-1.1,4.5-1.1ZM55.5,79c.1,0,.9,1.7,2.3,3.4,1.4,1.8,1.6,4,1.6,4,0,0-2.1-2.3-2.9-3.9s-1-3.5-1-3.5h0Z"/>
    <path id="path5319" class="st6" d="M57.5,30.9c3,.2,5.9-1.1,5.2-3.1s-6-3.5-6.4-1.4c-.4,2,.9,5,1.2,4.5Z"/>
    <path id="path5321" class="st6" d="M50.7,23.5c-4.1-2.7-4.1-3.5-3.4-3.9s4.9,2.4,6.2,3.9c1.2,1.4-1.1.9-2.8,0Z"/>
    <g class="st33">
      <g id="g5373">
        <path id="path5323" class="st6" d="M5.8,69.1c15.9-1.2,18.5-1.7,17.5-4.9-1-3.3-4.2-11.3-11.1-10.9-6.9.5-11-3.3-11-3.3"/>
        <path id="path5311" class="st2" d="M6.7,81.6c8.8-4.8,13.9-4.1,16.9-5.6,3-1.4,6.4-2.8,7.6-4.6,1.2-1.8,2.8-5.6,2.8-8.7s-1.7-17.4,1.6-21,8.3-12.6,12.6-11.2c4.2,1.3,5.9,4.7,10.6,4.6s10.5-1.9,11.7-5.9-7.6-7.7-7.7-11.1,2.7-6.9,9.8-8.2,8.6-2.6,8.6-2.6"/>
        <path id="path5313" class="st6" d="M5.2,73.8c7.4-.7,10.7,1.7,15.2.8s6.4-1.4,8.6-2.8c2.2-1.3,2.9-1.8,3-3.1.1-1.3.5-6-1.4-10.6s-6-15.2-4-18.7c2.1-3.5,2.5-10.4,7.6-11.8,5.1-1.4,10.1-3,13.4-.6s6.2,6.9,9.7,7,5.7-.7,7-2.2,2.2-4.9.8-6.6c-1.3-1.7-7.5-2.7-8.3-4.6s-5.2-8.2-.1-12.9,13-4,13-4"/>
        <path id="path5315" class="st6" d="M8.5,72.8c6.6.5,10.4,2.1,16.2-.2,5.8-2.3,6.5-2.5,6.6-4.2s-.1-7.6-1.4-9.7-6.3-6.6-7.6-11.7.1-19.8,4.1-23.3,15.4-3.5,18.1-5.1,2.5-8.1,6.3-11.8,11-5.4,11-5.4"/>
        <path id="path5317" class="st6" d="M91.6,5.5c5.7,2.4,10.5-.6,17.3,13.4"/>
        <path id="path5325" class="st6" d="M2.9,99.4c9.2-6,17.4-.6,23.7-1.9s18.5-18,22.2-17.9,2.7-5.7,4.1-6.4c1.4-.7,2.7,2.9,5.7,3.9s11.8-1.3,11.3-2.8c-.5-1.4-3.4-3.7-2.7-4.1.7-.4,4.1,2.4,6.2,1.7,2.1-.7,21.1-.5,23.4-6.5s10.4-6.5,10.4-6.5"/>
        <path id="path5327" class="st6" d="M35.6,108.8c6.5-5.6,11.2-12.1,13.8-13s6.2-1.8,7.6-3.9,1.2-5.2,2.5-5.8c1.3-.6,1.8,2.8,4.2,2.9s17.7-2.4,20.6-5.7c2.9-3.3,15.6-6,15.7-7s-.5-2.3.1-2.7c.6-.4,11.9-2.9,11.9-2.9"/>
        <path id="path5329" class="st6" d="M79.7,110c4.3-6.6,9.9-19.8,14.2-20.3s4.9-1.2,6-2.1c1.1-.8,8.2,1.1,8.2,1.1"/>
      </g>
    </g>
    <g class="st34">
      <g id="g5400">
        <path id="path5387" class="st9" d="M25.8,7.5l-3.8,11.8,8.7,3,3.7,17.5-10.1,10.8,4.3,5.1-5.8,5.6.2,2.2,9.8,11.8,6.8-3.3,9.9,8.9-5.1,13.6,4.9,4.1-1.3,6.3"/>
        <path id="path5389" class="st9" d="M49.3,98.5l6-13.4,5.3-3.4,13.3,7.6,9.9-1.8-.1-7.6-4.9-2.9,6.2-12.7,2.8-1.8,18.7-4.8"/>
      </g>
    </g>
  </g>
  <path id="path5604-26-0-3" class="st0" d="M82.3,34.4c-8.5-.6-17,1.6-23.5,6.5-.1.1-.2.1-.2.2-10.6,8.3-12.6,21.8-6,33l-1.1.6c1.1,1.8,2.4,3.6,3.9,5.2l-6.4,5c-.6-.3-1.3-.5-2.2-.7l-1.4,1.1c-.5-.2-1-.4-1.5-.5l-31,24.1c0,.4.1.9.3,1.4l-.3.2-.5.4c.3,1.6,1,2.9,2.6,4.4,1.7,1.5,3.1,2.1,5,2.6l.5-.4.3-.3c.5.2,1,.4,1.5.4l31-24.1c-.1-.4-.3-.8-.5-1.2l1.4-1.1c-.1-.7-.3-1.3-.6-1.9l6.4-5c1.8,1.4,3.8,2.7,5.9,3.7l.8-.9c12.7,6.5,28.7,5.9,39.3-2.4l.2-.2c12.9-10.3,12.8-28.2-.2-40.1-6.5-6.1-15.1-9.4-23.7-10h0ZM82.1,35.7q.1,0,0,0c.6,0,1,.1,1.5.1.5.1.9.1,1.4.2h.4c.4.1.9.2,1.3.2.3.1.6.1.9.2.2,0,.3.1.5.1.3.1.7.2,1,.3.1,0,.3.1.5.1h.1c.5.1.9.3,1.4.4h.1c.5.2.9.3,1.4.5h.1c.5.2.9.4,1.4.6h.1c.5.2.9.4,1.4.6h.1c.4.2.9.4,1.3.7h0c.4.2.9.5,1.3.7h0c.4.3.9.5,1.3.8.3.2.5.4.8.5.2.1.4.2.5.4h0c.4.3.8.6,1.3.9.8.6,1.7,1.3,2.4,2,.8.7,1.5,1.5,2.2,2.2h0c.3.4.7.7,1,1.1.1.2.3.3.4.5.2.2.4.4.5.7h0c.3.4.6.8.8,1.2h0c.3.4.5.8.8,1.2h0c.2.4.5.8.7,1.2v.1c.2.4.4.8.6,1.2v.1c.2.4.4.8.5,1.2v.1c.2.4.3.8.5,1.2v.1c.1.4.3.8.4,1.2v.1c0,.1.1.3.1.4.1.3.2.6.2.9,0,.1.1.3.1.4.1.3.1.5.2.8.1.4.1.7.2,1.1v.4c0,.4.1.8.1,1.2s.1.8.1,1.2v1.4c0,.4,0,.8-.1,1.1v.2c0,.4-.1.7-.1,1.1-.1.4-.1.8-.2,1.2v.2c-.1.4-.2.7-.3,1.1v.2c-.1.4-.2.7-.3,1.1-.1.2-.2.5-.3.7s-.2.5-.3.7c-.1.3-.3.7-.5,1,0,.1-.1.1-.1.2,0,0,0,.1-.1.1-.2.3-.4.7-.5,1-.2.3-.4.6-.6,1,0,.1-.1.1-.1.2-.2.3-.4.6-.6.9,0,.1-.1.1-.1.2-.1.1-.2.3-.3.4-.2.2-.4.5-.5.7h0c-.2.3-.5.6-.7.9l-.7.7-.3.3-.2.2c-.1.1-.2.1-.2.2l-.8.8c-.3.3-.6.5-.9.8l-.2.2c-10.2,8-25.2,8.3-37.3,2l.1-.1c-1.8-.9-3.5-1.9-5.1-3.1-.3-.2-.5-.4-.8-.6-.2-.2-.5-.4-.7-.6l-.1-.1c-.4-.3-.8-.7-1.2-1-.4-.4-.8-.7-1.1-1.1l-.1-.1c-.2-.2-.4-.4-.6-.7-.2-.2-.4-.5-.6-.7-1.3-1.5-2.4-3-3.3-4.6h-.1c-6.4-10.7-4.8-23.3,5.4-31.3.1-.1.2-.1.2-.2.3-.2.6-.5,1-.7.3-.2.6-.4,1-.6.1-.1.3-.2.4-.3.2-.1.3-.2.5-.3.3-.2.6-.4.9-.5.4-.2.7-.4,1.1-.6.3-.1.6-.3.8-.4l.6-.3c.3-.1.7-.3,1-.4.1,0,.2-.1.3-.1.5-.2.9-.3,1.4-.5.4-.1.8-.3,1.3-.4h.2c.5-.1.9-.2,1.4-.4.3-.1.5-.1.8-.2.3-.1.6-.1.8-.2.4-.1.9-.1,1.3-.2h.1c.2,0,.4-.1.6-.1.3,0,.7-.1,1-.1h.1c.5,0,.9-.1,1.4-.1h2.8c.6.6,1.1.6,1.6.7h0Z"/>
  <g id="layer3">
    <g id="g4808" class="st37">
      <path id="path3834-4-9" class="st11" d="M104,.9s-11.7,4.3-15.3,5.1c-3.6.7-10.1,2.5-10.1,2.5,2.4-.7,5.5,21.9,6.9,25.2v.1c5.7-2,24.7-2.3,26.2-6.2,0,0-2.3-7.4-3.6-14.4s-4.1-12.3-4.1-12.3Z"/>
      <path id="path3834-7-2-4-9" class="st10" d="M11.2,27.7s-2.7,6.2-4,11.9c-1.3,5.8-2.8,11.1-2.8,11.1l24.4,7.9,7.6-28.4c.1,0-25.2-2.5-25.2-2.5Z"/>
      <path id="path3834-7-26-9-7" class="st13" d="M10.8,76.9s-1.9,4.9-3.6,11.7c-1.7,6.8-2.4,14.8-2.4,14.8h.2c1-.2,5.4-.7,13.5.6,9.3,1.6,15.6,2.9,15.6,2.9l.7-25.3-.4.1-23.6-4.8Z"/>
      <path id="path3834-4-9-6" class="st18" d="M53.6,1.7s-1.6,1.7-10.6,3.9-13.3,2.8-13.3,2.8c2.5,7.1,5.8,14.1,6.9,21.6v.1l23.2-1.9.5.1c-1.7-6.4-3.8-26.3-6.7-26.6Z"/>
      <path id="path3834-7-26-0-0-9" class="st17" d="M55,51.1l-25.9,7.5h-.2l-.1.2,5.9,22.4v.4l23.9-4.3.3.1h0l-3.9-26.3h0Z"/>
      <path id="path3834-7-2-4-3" class="st14" d="M60.3,28.4c.1.4.2.8.3,1.1l-5.6,21.6h0l25,8.4,5.4-25.6c-.2.1-.3.1-.5.2l-24.6-5.7Z"/>
      <path id="path3834-7-26-9-85" class="st16" d="M58.8,77.4l-5.3,23.4s2.7.2,10.9,3c1,.3,2,.7,3,1s1.9.6,2.7.8c5.1,1.5,8.4,2.3,8.4,2.3l6.1-21.9c-.2.1-.5.2-.7.3l-25.1-8.9h0Z"/>
      <path id="path3834-7-26-0-0-3" class="st15" d="M103.4,52.1c-7.6,3-15.3,5.4-23.2,7.4l-.2-.1,4.6,26.5h0c8.6-3.1,17.1-6.5,25.5-10.1,0,0-.2-2.2-1.8-9.5s-4.9-14.2-4.9-14.2h0Z"/>
    </g>
    <g id="g4818" class="st38">
      <path id="path3834-4-9-1" class="st12" d="M4.8,1.9h-2.3s3.6,6.3,5.7,13.4c2.1,7.1,3,12.3,3,12.3l24.8,2.5h.5v-.1c-1.1-7.5-4.4-14.5-6.9-21.6,0,0-8.9-4.3-15.2-5.6-.5-.1-1-.2-1.4-.3-.3,0-.6-.1-.8-.1h-.3c-.6-.1-1.2-.2-1.8-.2-.4,0-.7-.1-1-.1s-.7-.1-1-.1c-.5,0-.9-.1-1.3-.1-.8,0-1.4,0-2,0h0Z"/>
      <path id="path3834-7-26-0-0-7" class="st25" d="M4.5,50.7s2.8,7.7,4.5,14.5,1.8,11.7,1.8,11.7l23.6,4.8.4-.1v-.4l-5.9-22.4.1-.2-24.5-7.9Z"/>
      <path id="path3834-7-2-4-6" class="st24" d="M59.7,28.2l-23.2,1.9h0l-7.6,28.4h.2l25.9-7.6,5.6-21.6c-.1-.3-.2-.7-.3-1.1,0,.2-.6,0-.6,0Z"/>
      <path id="path3834-7-26-9-8" class="st21" d="M58.6,77.3l-23.9,4.3-.7,25.4s6.2-1.3,11.6-3,7.8-3.1,7.8-3.1l5.4-23.4-.2-.2Z"/>
      <path id="path3834-4-9-2" class="st20" d="M53.6,1.7c2.9.3,5,20.2,6.7,26.6l24.7,5.7c.1-.1.3-.1.5-.2v-.1c-1.4-3.3-4.5-25.9-6.9-25.2,0,0-.3-.1-.8-.3-1.6-.7-5.4-2.2-9.8-3.8-6-2.1-14.4-2.7-14.4-2.7Z"/>
      <path id="path3834-7-26-0-0-0" class="st27" d="M55,51h0l-.1.2,4,25.7-.1.5,25.1,8.9c.2-.1.5-.2.7-.3h0l-4.6-26.5-25-8.5Z"/>
      <path id="path3834-7-26-9-9" class="st22" d="M110.1,76c-8.4,3.6-16.9,7-25.5,10.1l-6.1,21.9s6.3-1.3,12.6-2.8c6.3-1.4,12.8-3.9,12.8-3.9,0,0-.4-2.4,2.1-11.8,2.3-9.4,4.1-13.5,4.1-13.5Z"/>
      <path id="path3834-7-2-4-5" class="st23" d="M111.6,27.7c-1.5,3.9-20.5,4.2-26.2,6.2l-5.4,25.6.2.1c7.9-2.1,15.6-4.4,23.2-7.4,0,0,.8-5.1,3.3-11.5,2.4-6.5,4.9-13,4.9-13Z"/>
    </g>
  </g>
  <g id="layer5">
    <path id="rect5757-8-7-7-9" class="st26" d="M21.4,108.9l-2.3,2.2c-2.4-2.6-4.9-5.2-7.3-7.8l2.2-2c3.2,3.2,4.2,4.2,7.4,7.6h0Z"/>
    <path id="path5604-26" class="st7" d="M58.6,64.2c-13.1-13.1-13.1-34.4,0-47.5s34.4-13.1,47.5,0,13.1,34.4,0,47.5-34.4,13.1-47.5,0ZM60,62.7c12.6,12.6,32.5,13.1,45.1.5s12.1-32.5-.5-45.1c-12.5-12.6-32.5-13.1-45.1-.5s-12.1,32.5.5,45.1Z"/>
    <path id="path5604-2-9" class="st35" d="M58.6,64.2c-13.1-13.1-13.1-34.4,0-47.5.1-.1.2-.2.2-.2-12.9,13.1-12.8,34.1.3,47.2,13,13,34.1,13.1,47.3.2l-.2.2c-13.2,13.2-34.5,13.2-47.6.1ZM59.8,17.4c.1-.1.2-.2.2-.2,12.6-12.7,32.5-12.2,45.1.4s13.1,32.5.5,45.1l-.2.2c12.4-12.6,11.8-32.4-.7-44.9-12.6-12.4-32.3-13-44.9-.6Z"/>
    <path id="path5604-9-13" class="st41" d="M59.5,63.2c12.6,12.6,33,12.6,45.6,0s12.6-33,0-45.6-33-12.6-45.6,0-12.6,33,0,45.6Z"/>
    <path id="path5604-9-1-3" class="st31" d="M59.5,63.2c12.6,12.6,33,12.6,45.6,0s12.6-33,0-45.6-33-12.6-45.6,0-12.6,33,0,45.6Z"/>
    <path id="path5604-9-1-8-8-1" class="st19" d="M54.2,54.8l-2.8,2c1.6,3,3.6,5.8,6.2,8.3,2.5,2.5,5.3,4.6,8.3,6.2l2-2.8c-2.9-1.5-5.5-3.4-7.9-5.8-2.4-2.4-4.3-5-5.8-7.9Z"/>
    <path id="rect5757-5" class="st28" d="M58.5,64.3c.8.8,1.5,1.8,2,2.8l-12.7,12.6c-1-.5-1.9-1.2-2.8-2-.8-.8-1.5-1.8-2-2.8l12.7-12.7c1,.6,1.9,1.2,2.8,2.1Z"/>
    <path id="rect5757-8-7-2" class="st30" d="M54.3,76l-31.9,31.9c-1.9-1.1-2.8-1.4-4.5-3.1s-2.1-2.6-3.1-4.5l31.9-31.9c2.5,1.8,5.9,5,7.6,7.6h0Z"/>
    <path id="rect5757-8-6" class="st29" d="M49.3,73.5c1.7,1.7,3.6,3.2,4.1,5.3l-30.9,30.9c-3.1-2.5-7-6.2-9.5-9.5l30.9-30.9c1.7.2,3.7,2.5,5.4,4.2h0Z"/>
    <path id="rect5757-8-6-3" class="st4" d="M49.1,73.7c1.7,1.7,3.7,3.1,4.2,5.2l-30.9,30.9c-3.8-3.3-5.7-5.1-9.5-9.5l30.9-30.9c1.8.1,3.7,2.6,5.3,4.3h0Z"/>
    <path id="path6587" class="st3" d="M61.5,17c19.6-15.5,37.7-6.1,37.5,2.6s-27.3,34-36.9,31.9c-9.5-2-12.2-25.8-.6-34.5h0Z"/>
    <path id="path6587-7" class="st5" d="M104.1,61.5c-12.9,10.6-20.2,10.1-18.4,6.3,1.8-3.8,20.4-20.1,24.8-21.1,4.5-1,1.2,8.7-6.4,14.8Z"/>
  </g>
  <path d="M75.8,23.9v13.8h14.6v-13.8h7.9v36h-7.9v-15.5h-14.6v15.5h-7.9V23.9s7.9,0,7.9,0Z"/>
</svg>