<?xml version="1.0" encoding="UTF-8"?>
<svg id="Layer_1" xmlns="http://www.w3.org/2000/svg" version="1.1" viewBox="0 0 128 128">
  <!-- Generator: Adobe Illustrator 30.3.0, SVG Export Plug-In . SVG Version: 2.1.3 Build 182)  -->
  <defs>
    <style>
      .st0 {
        fill: #fff;
        stroke: #231f20;
        stroke-linejoin: round;
        stroke-width: 3px;
      }
    </style>
  </defs>
  <polygon class="st0" points="10 112 16 28 40 28 46 112 10 112"/>
  <polyline class="st0" points="12 20 14 28 42 28 44 20 44 12 38 12 38 16 32 16 32 12 24 12 24 16 18 16 18 12 12 12 12 20"/>
  <polygon class="st0" points="82 112 88 28 112 28 118 112 82 112"/>
  <polyline class="st0" points="84 20 86 28 114 28 116 20 116 12 110 12 110 16 104 16 104 12 96 12 96 16 90 16 90 12 84 12 84 20"/>
  <line class="st0" x1="43.57" y1="78" x2="84.43" y2="78"/>
  <path class="st0" d="M68,60"/>
  <polyline class="st0" points="41.86 54 49 54 49 60 55 60 55 54 61 54 61 60 67 60 67 54 73 54 73 60 79 60 79 54 86.14 54"/>
</svg>