<?xml version="1.0" encoding="UTF-8"?>
<svg id="Layer_1" xmlns="http://www.w3.org/2000/svg" version="1.1" viewBox="0 0 128 128">
  <!-- Generator: Adobe Illustrator 30.3.0, SVG Export Plug-In . SVG Version: 2.1.3 Build 182)  -->
  <defs>
    <style>
      .st0 {
        fill: #fff;
        stroke: #231f20;
        stroke-linejoin: round;
      }
    </style>
  </defs>
  <polygon class="st0" points="8 112 18 28 38 28 48 112 8 112"/>
  <polyline class="st0" points="12 20 18 28 38 28 44 20 44 12 38 12 38 16 32 16 32 12 24 12 24 16 18 16 18 12 12 12 12 20"/>
  <polygon class="st0" points="80 112 90 28 110 28 120 112 80 112"/>
  <polyline class="st0" points="84 20 90 28 110 28 116 20 116 12 110 12 110 16 104 16 104 12 96 12 96 16 90 16 90 12 84 12 84 20"/>
  <polyline class="st0" points="41.33 56 42 56 42 52 46 52 46 56 50 56 50 52 54 52 54 56 58 56 58 52 62 52 62 56 66 56 66 52 70 52 70 56 74 56 74 52 78 52 78 56 82 56 82 52 86 52 86 56 86.67 56"/>
  <line class="st0" x1="43.24" y1="72" x2="84" y2="72"/>
  <path class="st0" d="M68,60"/>
</svg>