<?xml version="1.0" encoding="UTF-8"?>
<svg id="Layer_1" xmlns="http://www.w3.org/2000/svg" version="1.1" viewBox="0 0 128 128">
  <!-- Generator: Adobe Illustrator 30.3.0, SVG Export Plug-In . SVG Version: 2.1.3 Build 182)  -->
  <defs>
    <style>
      .st0 {
        fill: #1b4b53;
      }

      .st1 {
        fill: #f3ead5;
        stroke: #f3ead5;
      }

      .st1, .st2 {
        stroke-linejoin: round;
      }

      .st2 {
        fill: #fff;
        stroke: #231f20;
        stroke-width: 3px;
      }
    </style>
  </defs>
  <path class="st0" d="M10.38,6.19l24.04,9.16,24.04-9.16c.63-.24,1.33-.25,1.96-.03l.08.03,24.05,9.22,23.95-9.22c1.45-.56,3.08.15,3.67,1.58l.03.06,9.62,25.1c.25.66.25,1.39,0,2.05l-9.22,24.07,9.22,23.94c.24.63.25,1.32.04,1.96l-.03.08-9.55,25.29c-.29.77-.89,1.37-1.66,1.66l-25.07,9.55c-.66.25-1.38.25-2.04,0l-24.05-9.17-24.05,9.17c-.64.24-1.34.25-1.98.02l-.08-.03-24.58-9.58h-.06c-1.36-.36-2.47-1.68-2.16-3.28h0s0-.01,0-.01c.04-.26.12-.52.24-.76l.02-.04,9.05-23.78-9.16-24.05c-.24-.63-.25-1.32-.03-1.96l.03-.08,9.16-24.05L6.69,9.88c-.88-2.31,1.38-4.57,3.69-3.69Z"/>
  <polygon class="st1" points="26.2 100 30.4 41.2 47.2 41.2 51.4 100 26.2 100"/>
  <polyline class="st1" points="27.6 35.6 29 41.2 48.6 41.2 50 35.6 50 30 45.8 30 45.8 32.8 41.6 32.8 41.6 30 36 30 36 32.8 31.8 32.8 31.8 30 27.6 30 27.6 35.6"/>
  <polygon class="st1" points="76.6 100 80.8 41.2 97.6 41.2 101.8 100 76.6 100"/>
  <polyline class="st1" points="78 35.6 79.4 41.2 99 41.2 100.4 35.6 100.4 30 96.2 30 96.2 32.8 92 32.8 92 30 86.4 30 86.4 32.8 82.2 32.8 82.2 30 78 30 78 35.6"/>
  <path class="st2" d="M66.8,60.6"/>
  <polygon class="st1" points="78.3 76.2 49.7 76.2 48.5 59.4 53.5 59.4 53.5 63.6 57.7 63.6 57.7 59.4 61.9 59.4 61.9 63.6 66.1 63.6 66.1 59.4 70.3 59.4 70.3 63.6 74.5 63.6 74.5 59.4 79.5 59.4 78.3 76.2"/>
</svg>