<svg xmlns="http://www.w3.org/2000/svg" width="128" height="128" viewBox="0 0 128 128">
  <path
    d="M 4.00,4.00 L 12.00,4.00 L 12.00,12.00 L 4.00,12.00 L 4.00,20.00 L 4.00,28.00 L 12.00,28.00 L 12.00,20.00 L 20.00,20.00 L 20.00,28.00 L 28.00,28.00 L 28.00,20.00 L 28.00,12.00 L 20.00,12.00 L 20.00,4.00 L 28.00,4.00 L 36.00,4.00 L 36.00,12.00 L 44.00,12.00 L 44.00,4.00 L 52.00,4.00 L 60.00,4.00 L 60.00,12.00 L 52.00,12.00 L 52.00,20.00 L 60.00,20.00 L 60.00,28.00 L 52.00,28.00 L 44.00,28.00 L 44.00,20.00 L 36.00,20.00 L 36.00,28.00 L 36.00,36.00 L 36.00,44.00 L 44.00,44.00 L 44.00,36.00 L 52.00,36.00 L 60.00,36.00 L 60.00,44.00 L 52.00,44.00 L 52.00,52.00 L 60.00,52.00 L 60.00,60.00 L 52.00,60.00 L 44.00,60.00 L 44.00,52.00 L 36.00,52.00 L 36.00,60.00 L 28.00,60.00 L 20.00,60.00 L 20.00,52.00 L 28.00,52.00 L 28.00,44.00 L 28.00,36.00 L 20.00,36.00 L 20.00,44.00 L 12.00,44.00 L 12.00,36.00 L 4.00,36.00 L 4.00,44.00 L 4.00,52.00 L 12.00,52.00 L 12.00,60.00 L 4.00,60.00 L 4.00,68.00 L 4.00,76.00 L 12.00,76.00 L 12.00,68.00 L 20.00,68.00 L 28.00,68.00 L 28.00,76.00 L 20.00,76.00 L 20.00,84.00 L 28.00,84.00 L 28.00,92.00 L 20.00,92.00 L 12.00,92.00 L 12.00,84.00 L 4.00,84.00 L 4.00,92.00 L 4.00,100.00 L 12.00,100.00 L 12.00,108.00 L 4.00,108.00 L 4.00,116.00 L 4.00,124.00 L 12.00,124.00 L 12.00,116.00 L 20.00,116.00 L 20.00,124.00 L 28.00,124.00 L 28.00,116.00 L 28.00,108.00 L 20.00,108.00 L 20.00,100.00 L 28.00,100.00 L 36.00,100.00 L 44.00,100.00 L 44.00,108.00 L 36.00,108.00 L 36.00,116.00 L 36.00,124.00 L 44.00,124.00 L 44.00,116.00 L 52.00,116.00 L 52.00,124.00 L 60.00,124.00 L 60.00,116.00 L 60.00,108.00 L 52.00,108.00 L 52.00,100.00 L 60.00,100.00 L 60.00,92.00 L 60.00,84.00 L 52.00,84.00 L 52.00,92.00 L 44.00,92.00 L 36.00,92.00 L 36.00,84.00 L 44.00,84.00 L 44.00,76.00 L 36.00,76.00 L 36.00,68.00 L 44.00,68.00 L 52.00,68.00 L 52.00,76.00 L 60.00,76.00 L 60.00,68.00 L 68.00,68.00 L 68.00,76.00 L 76.00,76.00 L 76.00,68.00 L 84.00,68.00 L 92.00,68.00 L 92.00,76.00 L 84.00,76.00 L 84.00,84.00 L 92.00,84.00 L 92.00,92.00 L 84.00,92.00 L 76.00,92.00 L 76.00,84.00 L 68.00,84.00 L 68.00,92.00 L 68.00,100.00 L 76.00,100.00 L 76.00,108.00 L 68.00,108.00 L 68.00,116.00 L 68.00,124.00 L 76.00,124.00 L 76.00,116.00 L 84.00,116.00 L 84.00,124.00 L 92.00,124.00 L 92.00,116.00 L 92.00,108.00 L 84.00,108.00 L 84.00,100.00 L 92.00,100.00 L 100.00,100.00 L 108.00,100.00 L 108.00,108.00 L 100.00,108.00 L 100.00,116.00 L 100.00,124.00 L 108.00,124.00 L 108.00,116.00 L 116.00,116.00 L 116.00,124.00 L 124.00,124.00 L 124.00,116.00 L 124.00,108.00 L 116.00,108.00 L 116.00,100.00 L 124.00,100.00 L 124.00,92.00 L 124.00,84.00 L 116.00,84.00 L 116.00,92.00 L 108.00,92.00 L 100.00,92.00 L 100.00,84.00 L 108.00,84.00 L 108.00,76.00 L 100.00,76.00 L 100.00,68.00 L 108.00,68.00 L 116.00,68.00 L 116.00,76.00 L 124.00,76.00 L 124.00,68.00 L 124.00,60.00 L 116.00,60.00 L 116.00,52.00 L 124.00,52.00 L 124.00,44.00 L 124.00,36.00 L 116.00,36.00 L 116.00,44.00 L 108.00,44.00 L 108.00,36.00 L 100.00,36.00 L 100.00,44.00 L 100.00,52.00 L 108.00,52.00 L 108.00,60.00 L 100.00,60.00 L 92.00,60.00 L 92.00,52.00 L 84.00,52.00 L 84.00,60.00 L 76.00,60.00 L 68.00,60.00 L 68.00,52.00 L 76.00,52.00 L 76.00,44.00 L 68.00,44.00 L 68.00,36.00 L 76.00,36.00 L 84.00,36.00 L 84.00,44.00 L 92.00,44.00 L 92.00,36.00 L 92.00,28.00 L 92.00,20.00 L 84.00,20.00 L 84.00,28.00 L 76.00,28.00 L 68.00,28.00 L 68.00,20.00 L 76.00,20.00 L 76.00,12.00 L 68.00,12.00 L 68.00,4.00 L 76.00,4.00 L 84.00,4.00 L 84.00,12.00 L 92.00,12.00 L 92.00,4.00 L 100.00,4.00 L 108.00,4.00 L 108.00,12.00 L 100.00,12.00 L 100.00,20.00 L 100.00,28.00 L 108.00,28.00 L 108.00,20.00 L 116.00,20.00 L 116.00,28.00 L 124.00,28.00 L 124.00,20.00 L 124.00,12.00 L 116.00,12.00 L 116.00,4.00 L 124.00,4.00"
    fill="none"
    stroke="#185FA5"
    stroke-width="3"
    stroke-linecap="round"
    stroke-linejoin="round"
  />
</svg>
