<?xml version="1.0" encoding="UTF-8"?>
<svg xmlns="http://www.w3.org/2000/svg" viewBox="0 0 526 526">
<rect width="526" height="526" fill="#fafafa"/>
<path d="M17.7125864,0.883023497 L126.967928,42.5323279 L236.224635,0.883027946 C239.094902,-0.211145652 242.255769,-0.252211277 245.14749,0.759334673 L245.507513,0.891260233 L354.843928,42.7933279 L463.704565,0.897837528 C470.313612,-1.64573302 477.720608,1.57034226 480.396726,8.08526775 L480.513372,8.37917727 L524.221401,122.456847 C525.368771,125.451475 525.368771,128.764521 524.221401,131.759148 L482.299928,241.172328 L524.213077,349.983725 C525.31507,352.844619 525.369112,355.99883 524.373378,358.88979 L524.243443,359.249748 L480.830911,474.193882 C479.516668,477.673625 476.774797,480.423721 473.299006,481.748379 L359.343298,525.178032 C356.361491,526.314428 353.065873,526.314427 350.084067,525.178028 L240.757928,483.512328 L131.432146,525.178032 C128.540196,526.280182 125.354143,526.313035 122.44617,525.278683 L122.084163,525.143831 L10.3459282,481.620328 L10.0631079,481.552489 C3.88211489,479.972515 -1.15091727,474.002936 0.230043432,466.71385 L0.236928246,466.684328 L0.240934369,466.650905 C0.430331864,465.471243 0.786009189,464.304844 1.31678061,463.186445 L1.40092825,463.014328 L42.5569282,354.910328 L0.932627824,245.577266 C-0.156265264,242.717138 -0.199823339,239.568625 0.801954026,236.685425 L0.932620652,236.326447 L42.5569282,126.991328 L0.932608906,17.655697 C-3.06129067,7.16503998 7.22366922,-3.11544307 17.7125864,0.883023497 Z" fill="#1a4a52"/>
</svg>