<svg xmlns="http://www.w3.org/2000/svg" viewBox="0 0 660 208">
<rect width="100%" height="100%" fill="#fafafa"/>
<rect x="20" y="20" width="140" height="140" fill="#fff" stroke="#eee" stroke-width="0.5"/>
<svg x="20" y="20" width="140" height="140" viewBox="0 0 100 100" preserveAspectRatio="xMidYMid meet"><polygon points="10,20 30,15 50,20 70,15 90,20 90,75 70,80 50,75 30,80 10,75" fill="#1a4a52"/></svg>
<text x="90.0" y="178" font-family="Helvetica, sans-serif" font-size="11" text-anchor="middle" fill="#444">Canonical</text>
<rect x="180" y="20" width="140" height="140" fill="#fff" stroke="#eee" stroke-width="0.5"/>
<svg x="180" y="20" width="140" height="140" viewBox="0 0 100 100" preserveAspectRatio="xMidYMid meet"><path d="M 10.33,18.86 Q 19.98,16.95 29.46,14.34 Q 39.95,17.61 50.57,20.42 Q 60.70,17.03 70.94,14.01 Q 80.48,16.04 89.81,18.87 Q 89.02,46.94 89.32,75.01 Q 79.13,77.34 68.86,79.28 Q 59.50,77.67 50.36,75.11 Q 39.96,78.13 29.33,80.21 Q 20.17,76.62 10.74,73.82 Q 10.66,46.34 10.33,18.86 Z" fill="#1a4a52"/></svg>
<text x="250.0" y="178" font-family="Helvetica, sans-serif" font-size="11" text-anchor="middle" fill="#444">Organic</text>
<rect x="340" y="20" width="140" height="140" fill="#fff" stroke="#eee" stroke-width="0.5"/>
<svg x="340" y="20" width="140" height="140" viewBox="0 0 526 526" preserveAspectRatio="xMidYMid meet"><path d="M17.7125864,0.883023497 L126.967928,42.5323279 L236.224635,0.883027946 C239.094902,-0.211145652 242.255769,-0.252211277 245.14749,0.759334673 L245.507513,0.891260233 L354.843928,42.7933279 L463.704565,0.897837528 C470.313612,-1.64573302 477.720608,1.57034226 480.396726,8.08526775 L480.513372,8.37917727 L524.221401,122.456847 C525.368771,125.451475 525.368771,128.764521 524.221401,131.759148 L482.299928,241.172328 L524.213077,349.983725 C525.31507,352.844619 525.369112,355.99883 524.373378,358.88979 L524.243443,359.249748 L480.830911,474.193882 C479.516668,477.673625 476.774797,480.423721 473.299006,481.748379 L359.343298,525.178032 C356.361491,526.314428 353.065873,526.314427 350.084067,525.178028 L240.757928,483.512328 L131.432146,525.178032 C128.540196,526.280182 125.354143,526.313035 122.44617,525.278683 L122.084163,525.143831 L10.3459282,481.620328 L10.0631079,481.552489 C3.88211489,479.972515 -1.15091727,474.002936 0.230043432,466.71385 L0.236928246,466.684328 L0.240934369,466.650905 C0.430331864,465.471243 0.786009189,464.304844 1.31678061,463.186445 L1.40092825,463.014328 L42.5569282,354.910328 L0.932627824,245.577266 C-0.156265264,242.717138 -0.199823339,239.568625 0.801954026,236.685425 L0.932620652,236.326447 L42.5569282,126.991328 L0.932608906,17.655697 C-3.06129067,7.16503998 7.22366922,-3.11544307 17.7125864,0.883023497 Z" fill="#1a4a52"/></svg>
<text x="410.0" y="178" font-family="Helvetica, sans-serif" font-size="11" text-anchor="middle" fill="#444">OpenTrailMap</text>
<rect x="500" y="20" width="140" height="140" fill="#fff" stroke="#eee" stroke-width="0.5"/>
<svg x="500" y="20" width="140" height="140" viewBox="0 0 500 500" preserveAspectRatio="xMidYMid meet"><path d="M456.291971,0 L500,114.07767 L456.291971,228.15534 L500,341.626214 L456.587467,456.570348 L342.63176,500 L228.676335,456.570348 L114.720607,500 L1.08620195,455.737864 L44.386183,341.881312 L1,227.921519 L44.386183,113.961195 L1,0 L114.886853,43.4146598 L228.773377,0 L342.772506,43.6893204 L456.291971,0 Z" fill="#1a4a52"/></svg>
<text x="570.0" y="178" font-family="Helvetica, sans-serif" font-size="11" text-anchor="middle" fill="#444">Public Domain Map</text>
</svg>