<?xml version="1.0" encoding="UTF-8"?>
<svg id="Layer_1" xmlns="http://www.w3.org/2000/svg" version="1.1" viewBox="0 0 130 100">
  <!-- Generator: Adobe Illustrator 30.3.0, SVG Export Plug-In . SVG Version: 2.1.3 Build 182)  -->
  <defs>
    <style>
      .st0 {
        fill: #4a5560;
      }
    </style>
  </defs>
  <path class="st0" d="M23.8,19.58c6.67-1.25,13.36-2.43,20.05-3.55,7.4,1.36,14.75,2.95,22.06,4.77,6.22-2.26,12.43-4.55,18.63-6.86,7.07,2.55,14.19,4.93,21.37,7.13-.4,17.97-1.03,35.94-1.9,53.9-6.64,2.03-13.32,3.91-20.04,5.66-5.98-2.55-12.09-4.72-18.33-6.52-6.93,1.89-13.83,3.89-20.7,6.01-6.85-1.36-13.68-2.77-20.5-4.23-.2-18.77-.41-37.54-.64-56.31Z"/>
</svg>